<svg xmlns="http://www.w3.org/2000/svg" width="34" height="35" viewBox="0 0 34 35" fill="none"><path d="M31.95 7.83584L18.2 0.312406C17.8326 0.10941 17.4197 0.00292969 17 0.00292969C16.5803 0.00292969 16.1674 0.10941 15.8 0.312406L2.05 7.83897C1.65733 8.05382 1.32954 8.37015 1.10086 8.75494C0.872188 9.13973 0.751016 9.57886 0.75 10.0265V24.9702C0.751016 25.4178 0.872188 25.8569 1.10086 26.2417C1.32954 26.6265 1.65733 26.9429 2.05 27.1577L15.8 34.6843C16.1674 34.8873 16.5803 34.9938 17 34.9938C17.4197 34.9938 17.8326 34.8873 18.2 34.6843L31.95 27.1577C32.3427 26.9429 32.6705 26.6265 32.8991 26.2417C33.1278 25.8569 33.249 25.4178 33.25 24.9702V10.028C33.2498 9.57962 33.129 9.13952 32.9003 8.75383C32.6716 8.36815 32.3434 8.05108 31.95 7.83584ZM17 2.49991L29.5531 9.3749L24.9016 11.9218L12.3469 5.04678L17 2.49991ZM17 16.2499L4.44688 9.3749L9.74375 6.4749L22.2969 13.3499L17 16.2499ZM3.25 11.5624L15.75 18.403V31.8077L3.25 24.9718V11.5624ZM30.75 24.9655L18.25 31.8077V18.4093L23.25 15.6733V21.2499C23.25 21.5814 23.3817 21.8994 23.6161 22.1338C23.8505 22.3682 24.1685 22.4999 24.5 22.4999C24.8315 22.4999 25.1495 22.3682 25.3839 22.1338C25.6183 21.8994 25.75 21.5814 25.75 21.2499V14.3046L30.75 11.5624V24.964V24.9655Z" fill="#0ABEB3"></path></svg>