<svg xmlns="http://www.w3.org/2000/svg" width="36" height="25" viewBox="0 0 36 25" fill="none"><path d="M33 0H3C2.33696 0 1.70107 0.263392 1.23223 0.732233C0.763392 1.20107 0.5 1.83696 0.5 2.5V22.5C0.5 23.163 0.763392 23.7989 1.23223 24.2678C1.70107 24.7366 2.33696 25 3 25H33C33.663 25 34.2989 24.7366 34.7678 24.2678C35.2366 23.7989 35.5 23.163 35.5 22.5V2.5C35.5 1.83696 35.2366 1.20107 34.7678 0.732233C34.2989 0.263392 33.663 0 33 0ZM33 2.5V6.25H3V2.5H33ZM33 22.5H3V8.75H33V22.5ZM30.5 18.75C30.5 19.0815 30.3683 19.3995 30.1339 19.6339C29.8995 19.8683 29.5815 20 29.25 20H24.25C23.9185 20 23.6005 19.8683 23.3661 19.6339C23.1317 19.3995 23 19.0815 23 18.75C23 18.4185 23.1317 18.1005 23.3661 17.8661C23.6005 17.6317 23.9185 17.5 24.25 17.5H29.25C29.5815 17.5 29.8995 17.6317 30.1339 17.8661C30.3683 18.1005 30.5 18.4185 30.5 18.75ZM20.5 18.75C20.5 19.0815 20.3683 19.3995 20.1339 19.6339C19.8995 19.8683 19.5815 20 19.25 20H16.75C16.4185 20 16.1005 19.8683 15.8661 19.6339C15.6317 19.3995 15.5 19.0815 15.5 18.75C15.5 18.4185 15.6317 18.1005 15.8661 17.8661C16.1005 17.6317 16.4185 17.5 16.75 17.5H19.25C19.5815 17.5 19.8995 17.6317 20.1339 17.8661C20.3683 18.1005 20.5 18.4185 20.5 18.75Z" fill="#0ABEB3"></path></svg>