<svg xmlns="http://www.w3.org/2000/svg" width="38" height="31" viewBox="0 0 38 31" fill="none"><path d="M37.2984 4.98129C36.1031 2.92035 32.9484 2.45629 28.1578 3.62816C25.9399 1.91323 23.2855 0.854686 20.4962 0.572795C17.7068 0.290903 14.8943 0.796958 12.3781 2.03347C9.86197 3.26999 7.74304 5.1874 6.26204 7.56787C4.78104 9.94835 3.99735 12.6965 4 15.5C4.00019 16.1431 4.0409 16.7855 4.12187 17.4235C-0.204689 21.9063 -0.142189 24.5625 0.703123 26.0188C1.5 27.4 3.1625 28 5.35 28C6.86878 27.9686 8.37861 27.7588 9.84844 27.375C12.0666 29.0883 14.7206 30.1453 17.5093 30.4261C20.298 30.7069 23.1095 30.2002 25.6246 28.9635C28.1398 27.7269 30.2579 25.8098 31.7383 23.4299C33.2188 21.0501 34.0023 18.3028 34 15.5C34.0003 14.8601 33.9601 14.2208 33.8797 13.586C35.8328 11.5547 37.1328 9.62504 37.575 7.97347C37.8797 6.82972 37.7875 5.82347 37.2984 4.98129ZM19 3.00004C21.8312 3.00294 24.5777 3.96555 26.7913 5.73071C29.0048 7.49586 30.5545 9.95928 31.1875 12.7188C28.5219 15.2282 24.9141 17.8016 21.4891 19.7703C17.1844 22.2407 13.45 23.7813 10.4719 24.625C8.63761 22.9143 7.36089 20.6909 6.80791 18.2444C6.25493 15.7979 6.45131 13.2416 7.3715 10.9083C8.29168 8.57493 9.89303 6.57268 11.9671 5.16218C14.0411 3.75168 16.4918 2.99827 19 3.00004ZM2.86562 24.7641C2.6375 24.3719 2.76406 23.6328 3.2125 22.7328C3.65595 21.8896 4.19547 21.1005 4.82031 20.3813C5.43969 22.1758 6.39408 23.8365 7.63281 25.275C4.9375 25.7282 3.25625 25.4391 2.86562 24.7641ZM19 28C16.8924 28.0022 14.8189 27.4677 12.975 26.4469C16.3595 25.2499 19.6252 23.7403 22.7297 21.9375C26.1016 20.0016 29.0859 17.9032 31.4906 15.8313C31.4016 19.0862 30.047 22.1782 27.7147 24.4504C25.3824 26.7226 22.2561 27.996 19 28ZM35.1594 7.3266C34.8937 8.31254 34.1922 9.44066 33.1859 10.6282C32.5682 8.83148 31.6136 7.16901 30.3734 5.72972C32.5937 5.36254 34.65 5.39066 35.1391 6.23597C35.2797 6.48129 35.2875 6.84847 35.1594 7.3266Z" fill="#0ABEB3"></path></svg>