<svg xmlns="http://www.w3.org/2000/svg" width="34" height="33" viewBox="0 0 34 33" fill="none"><path d="M17 0.25C13.7861 0.25 10.6443 1.20305 7.97199 2.98862C5.29969 4.77419 3.21689 7.31209 1.98696 10.2814C0.757041 13.2507 0.435237 16.518 1.06225 19.6702C1.68926 22.8224 3.23692 25.7179 5.50952 27.9905C7.78212 30.2631 10.6776 31.8107 13.8298 32.4378C16.982 33.0648 20.2493 32.743 23.2186 31.513C26.1879 30.2831 28.7258 28.2003 30.5114 25.528C32.297 22.8557 33.25 19.7139 33.25 16.5C33.2455 12.1916 31.5319 8.06102 28.4855 5.01454C25.439 1.96806 21.3084 0.25455 17 0.25ZM23.1094 20.8422C24.0138 19.5749 24.4999 18.0569 24.4999 16.5C24.4999 14.9431 24.0138 13.4251 23.1094 12.1578L27.5625 7.70625C29.622 10.1738 30.7502 13.2859 30.7502 16.5C30.7502 19.7141 29.622 22.8262 27.5625 25.2937L23.1094 20.8422ZM12 16.5C12 15.5111 12.2933 14.5444 12.8427 13.7221C13.3921 12.8999 14.173 12.259 15.0866 11.8806C16.0002 11.5022 17.0056 11.4031 17.9755 11.5961C18.9454 11.789 19.8363 12.2652 20.5355 12.9645C21.2348 13.6637 21.711 14.5546 21.9039 15.5245C22.0969 16.4945 21.9978 17.4998 21.6194 18.4134C21.241 19.327 20.6001 20.1079 19.7779 20.6573C18.9556 21.2068 17.9889 21.5 17 21.5C15.6739 21.5 14.4022 20.9732 13.4645 20.0355C12.5268 19.0978 12 17.8261 12 16.5ZM25.7938 5.9375L21.3422 10.3906C20.0749 9.48624 18.5569 9.00011 17 9.00011C15.4431 9.00011 13.9251 9.48624 12.6578 10.3906L8.20626 5.9375C10.6738 3.87796 13.7859 2.74984 17 2.74984C20.2141 2.74984 23.3262 3.87796 25.7938 5.9375ZM6.43751 7.70625L10.8906 12.1578C9.98625 13.4251 9.50012 14.9431 9.50012 16.5C9.50012 18.0569 9.98625 19.5749 10.8906 20.8422L6.43751 25.2937C4.37797 22.8262 3.24985 19.7141 3.24985 16.5C3.24985 13.2859 4.37797 10.1738 6.43751 7.70625ZM8.20626 27.0625L12.6578 22.6094C13.9251 23.5138 15.4431 23.9999 17 23.9999C18.5569 23.9999 20.0749 23.5138 21.3422 22.6094L25.7938 27.0625C23.3262 29.122 20.2141 30.2502 17 30.2502C13.7859 30.2502 10.6738 29.122 8.20626 27.0625Z" fill="#0ABEB3"></path></svg>