<svg xmlns="http://www.w3.org/2000/svg" width="24" height="24" viewBox="0 0 24 24" fill="none"><g clip-path="url(#clip0_10_1842)"><rect width="24" height="24" fill="white"></rect><g clip-path="url(#clip1_10_1842)"><path opacity="0.815" fill-rule="evenodd" clip-rule="evenodd" d="M6.5 -0.5C10.8333 -0.5 15.1667 -0.5 19.5 -0.5C20.925 0.922032 21.925 2.5887 22.5 4.5C19.779 4.03717 17.1123 3.3705 14.5 2.5C12.9317 1.52692 11.265 1.36026 9.5 2C9.83333 2.33333 10.1667 2.66667 10.5 3C9.30665 4.09463 7.97332 4.92796 6.5 5.5C5.43236 4.56552 4.09903 4.23219 2.5 4.5C2.5 5.5 2.5 6.5 2.5 7.5C2.5 9.83333 2.5 12.1667 2.5 14.5C1.83333 14.8333 1.16667 15.1667 0.5 15.5C0.5 12.1667 0.5 8.83333 0.5 5.5C2.16667 3.16667 4.16667 1.16667 6.5 -0.5Z" fill="#ECECEF"></path><path fill-rule="evenodd" clip-rule="evenodd" d="M14.5 2.5C14.1193 3.93112 13.1193 4.76445 11.5 5C12.756 5.41691 13.4226 6.25025 13.5 7.5C11.8762 7.63993 10.7096 6.97326 10 5.5C8.86039 8.01763 7.69373 8.01763 6.5 5.5C7.97332 4.92796 9.30665 4.09463 10.5 3C10.1667 2.66667 9.83333 2.33333 9.5 2C11.265 1.36026 12.9317 1.52692 14.5 2.5Z" fill="#D77647"></path><path fill-rule="evenodd" clip-rule="evenodd" d="M6.5 5.50001C7.69373 8.01764 8.86039 8.01764 10 5.50001C10.7096 6.97327 11.8762 7.63994 13.5 7.50001C14.7095 7.93205 15.7095 8.59873 16.5 9.50001C15.8333 10.1667 15.1667 10.8333 14.5 11.5C12.6122 13.9878 11.9455 16.9878 12.5 20.5C11.8333 20.1667 11.1667 19.8333 10.5 19.5C11.9802 12.501 9.31353 8.50104 2.5 7.50001C2.5 6.50001 2.5 5.50001 2.5 4.50001C4.09903 4.2322 5.43236 4.56553 6.5 5.50001Z" fill="#EC3C1D"></path><path fill-rule="evenodd" clip-rule="evenodd" d="M14.5 2.5C17.1123 3.3705 19.779 4.03717 22.5 4.5C23.404 5.20895 23.7373 6.20895 23.5 7.5C21.8235 8.18342 21.1568 9.51676 21.5 11.5C20.6618 11.1583 20.3284 10.4916 20.5 9.5C20.1667 8.16667 19.8333 8.16667 19.5 9.5C18.5 9.5 17.5 9.5 16.5 9.5C15.7095 8.59872 14.7095 7.93205 13.5 7.5C13.4226 6.25025 12.756 5.41691 11.5 5C13.1193 4.76445 14.1193 3.93112 14.5 2.5Z" fill="#E3472F"></path><path fill-rule="evenodd" clip-rule="evenodd" d="M23.5 7.5C23.5987 10.2372 23.2653 12.9039 22.5 15.5C21.5655 14.4324 21.2322 13.099 21.5 11.5C21.1568 9.51676 21.8235 8.18342 23.5 7.5Z" fill="#F5D23D"></path><path fill-rule="evenodd" clip-rule="evenodd" d="M2.5 7.5C9.31353 8.50104 11.9802 12.501 10.5 19.5C8.84702 19.3404 7.51369 18.6737 6.5 17.5C7.86722 15.9073 7.53388 14.5739 5.5 13.5C4.61432 14.325 4.28099 15.325 4.5 16.5C3.83333 16.5 3.16667 16.5 2.5 16.5C2.5 15.8333 2.5 15.1667 2.5 14.5C2.5 12.1667 2.5 9.83333 2.5 7.5Z" fill="#E69F20"></path><path fill-rule="evenodd" clip-rule="evenodd" d="M16.5 9.5C17.5 9.5 18.5 9.5 19.5 9.5C19.8333 9.5 20.1667 9.5 20.5 9.5C20.3284 10.4916 20.6618 11.1583 21.5 11.5C21.2322 13.099 21.5655 14.4324 22.5 15.5C22.5 15.8333 22.5 16.1667 22.5 16.5C20.742 16.8769 19.0754 17.5435 17.5 18.5C16.4822 17.8075 15.4822 17.1408 14.5 16.5C14.5 14.8333 14.5 13.1667 14.5 11.5C15.1667 10.8333 15.8333 10.1667 16.5 9.5Z" fill="#81CB49"></path><path fill-rule="evenodd" clip-rule="evenodd" d="M6.50001 17.5C5.50839 17.6716 4.84172 17.3382 4.50001 16.5C4.281 15.325 4.61433 14.325 5.50001 13.5C7.53389 14.5739 7.86723 15.9073 6.50001 17.5Z" fill="#A68AAE"></path><path fill-rule="evenodd" clip-rule="evenodd" d="M14.5 11.5C14.5 13.1667 14.5 14.8333 14.5 16.5C14.8432 18.4832 14.1765 19.8166 12.5 20.5C11.9455 16.9878 12.6122 13.9878 14.5 11.5Z" fill="#DDC016"></path><path fill-rule="evenodd" clip-rule="evenodd" d="M17.5 11.5C18.782 12.7082 18.782 14.0416 17.5 15.5C16.3744 14.1916 16.3744 12.8583 17.5 11.5Z" fill="#B83F30"></path><path opacity="0.808" fill-rule="evenodd" clip-rule="evenodd" d="M2.50001 16.5C3.16668 16.5 3.83334 16.5 4.50001 16.5C4.84172 17.3382 5.50839 17.6716 6.50001 17.5C7.5137 18.6737 8.84703 19.3404 10.5 19.5C11.1667 19.8333 11.8333 20.1667 12.5 20.5C14.1765 19.8166 14.8432 18.4832 14.5 16.5C15.4822 17.1408 16.4822 17.8075 17.5 18.5C19.0754 17.5435 20.742 16.8769 22.5 16.5C23.7383 16.81 23.7383 17.31 22.5 18C19.5932 19.6091 16.9266 21.4424 14.5 23.5C13.5 23.5 12.5 23.5 11.5 23.5C9.11482 21.7373 6.44815 20.2373 3.50001 19C2.74757 18.3292 2.41424 17.4959 2.50001 16.5Z" fill="#29BECC"></path></g></g><defs><clipPath id="clip0_10_1842"><rect width="24" height="24" fill="white"></rect></clipPath><clipPath id="clip1_10_1842"><rect width="25" height="24" fill="white" transform="translate(1)"></rect></clipPath></defs></svg>