<svg xmlns="http://www.w3.org/2000/svg" width="27" height="26" viewBox="0 0 27 26" fill="none"><path d="M10.2804 15.0109C10.2261 15.0103 10.1742 14.9884 10.1358 14.95C10.0974 14.9116 10.0755 14.8597 10.0749 14.8054V13.6464C10.0749 13.5918 10.0965 13.5395 10.1351 13.501C10.1737 13.4624 10.226 13.4407 10.2805 13.4407C10.3351 13.4407 10.3874 13.4624 10.426 13.501C10.4645 13.5395 10.4862 13.5918 10.4862 13.6464V14.8052C10.4856 14.8595 10.4637 14.9115 10.4252 14.95C10.3868 14.9884 10.3348 15.0103 10.2804 15.0109ZM15.3113 17.3131C15.2569 17.3138 15.205 17.3357 15.1666 17.3741C15.1282 17.4125 15.1063 17.4644 15.1057 17.5187V18.6773C15.1057 18.7319 15.1273 18.7842 15.1659 18.8228C15.2045 18.8613 15.2568 18.883 15.3113 18.883C15.3659 18.883 15.4182 18.8613 15.4567 18.8228C15.4953 18.7842 15.517 18.7319 15.517 18.6773V17.5185C15.5163 17.4642 15.4944 17.4122 15.456 17.3738C15.4175 17.3354 15.3656 17.3135 15.3113 17.3129V17.3131ZM22.8281 16.5141C22.6595 18.9752 21.5638 21.2808 19.7621 22.9659C17.9604 24.6509 15.5867 25.59 13.1199 25.5938C12.8944 25.5938 12.6681 25.586 12.441 25.5705C10.8174 25.4586 9.24768 24.9421 7.87492 24.068C6.50216 23.1939 5.37003 21.9901 4.58177 20.5664C3.7935 19.1426 3.37417 17.5442 3.36202 15.9168C3.34987 14.2894 3.74527 12.6849 4.51218 11.2495C4.5136 11.2468 4.51508 11.2441 4.5166 11.2414C4.98338 10.3961 5.32986 8.67105 5.05996 7.79654C5.01845 7.662 5.01505 7.51858 5.05014 7.38221C5.08522 7.24585 5.15741 7.12188 5.2587 7.02407C5.35999 6.92626 5.48641 6.85843 5.62391 6.82813C5.76142 6.79783 5.90463 6.80624 6.03765 6.85242C6.69131 7.08713 7.27373 7.48581 7.72907 8.01023C8.15183 7.17854 8.61977 6.51391 9.0505 5.90215C10.0837 4.43457 10.7073 3.549 10.0444 1.39186C10.0032 1.25784 9.99978 1.11504 10.0345 0.979191C10.0693 0.843343 10.1408 0.719719 10.2413 0.621939C10.3418 0.524158 10.4674 0.456016 10.6041 0.425019C10.7409 0.394022 10.8835 0.401373 11.0163 0.446262C14.457 1.60829 16.6581 4.00887 17.7337 7.77816C17.8166 7.24119 17.8383 6.69655 17.7984 6.15468C17.7883 5.99034 17.8317 5.82715 17.9222 5.68957C18.0127 5.55199 18.1453 5.44742 18.3002 5.39154C18.455 5.33566 18.6239 5.33147 18.7813 5.37959C18.9388 5.42772 19.0764 5.52558 19.1736 5.6585C20.3947 7.3289 21.3321 9.06191 21.9598 10.8094C22.6615 12.763 22.9535 14.6823 22.8281 16.5141ZM10.2805 16.5344C10.7389 16.5339 11.1784 16.3515 11.5026 16.0274C11.8267 15.7033 12.009 15.2638 12.0096 14.8054V13.6464C12.0096 13.1878 11.8274 12.748 11.5031 12.4237C11.1789 12.0995 10.7391 11.9173 10.2805 11.9173C9.82189 11.9173 9.38208 12.0995 9.05781 12.4237C8.73355 12.748 8.55137 13.1878 8.55137 13.6464V14.8052C8.55183 15.2636 8.73414 15.7032 9.0583 16.0273C9.38245 16.3515 9.82198 16.5339 10.2804 16.5344H10.2805ZM15.9202 13.184C15.9793 13.1033 16.022 13.0117 16.0457 12.9145C16.0694 12.8173 16.0737 12.7164 16.0584 12.6175C16.0431 12.5187 16.0085 12.4238 15.9565 12.3383C15.9046 12.2528 15.8363 12.1784 15.7556 12.1193C15.6748 12.0602 15.5833 12.0176 15.4861 11.9939C15.3889 11.9702 15.288 11.9658 15.1891 11.9811C15.0902 11.9964 14.9954 12.031 14.9099 12.083C14.8244 12.135 14.75 12.2033 14.6909 12.284L9.67156 19.1399C9.61247 19.2206 9.56986 19.3122 9.54615 19.4094C9.52245 19.5066 9.51812 19.6075 9.53342 19.7063C9.54871 19.8052 9.58332 19.9 9.63528 19.9855C9.68724 20.071 9.75553 20.1454 9.83624 20.2045C9.91695 20.2636 10.0085 20.3062 10.1057 20.3299C10.2029 20.3536 10.3038 20.3579 10.4026 20.3426C10.5015 20.3273 10.5964 20.2927 10.6818 20.2408C10.7673 20.1888 10.8417 20.1205 10.9008 20.0398L15.9202 13.184ZM17.0404 17.5187C17.0404 17.0601 16.8583 16.6203 16.534 16.2961C16.2097 15.9718 15.7699 15.7896 15.3113 15.7896C14.8527 15.7896 14.4129 15.9718 14.0887 16.2961C13.7644 16.6203 13.5822 17.0601 13.5822 17.5187V18.6773C13.5822 19.1359 13.7644 19.5757 14.0887 19.9C14.4129 20.2243 14.8527 20.4064 15.3113 20.4064C15.7699 20.4064 16.2097 20.2243 16.534 19.9C16.8583 19.5757 17.0404 19.1359 17.0404 18.6773V17.5187Z" fill="url(#paint0_linear_1_124)"></path><defs><linearGradient id="paint0_linear_1_124" x1="4.6826" y1="6.18079" x2="20.6192" y2="22.1174" gradientUnits="userSpaceOnUse"><stop stop-color="#FF9B8C"></stop><stop offset="1" stop-color="#FD4D86"></stop></linearGradient></defs></svg>