<svg xmlns="http://www.w3.org/2000/svg" width="24" height="24" viewBox="0 0 24 24" fill="none"><rect width="24" height="24" fill="white"></rect><g clip-path="url(#clip0_10_1842)"><path opacity="0.978" fill-rule="evenodd" clip-rule="evenodd" d="M4.5 -0.5C9.5 -0.5 14.5 -0.5 19.5 -0.5C19.5 -0.166667 19.5 0.166667 19.5 0.5C18.6618 0.841711 18.3284 1.50838 18.5 2.5C16.7697 3.02561 15.4363 4.02561 14.5 5.5C10.6625 5.97836 7.32914 4.97836 4.5 2.5C4.5 1.5 4.5 0.5 4.5 -0.5Z" fill="#EDEFEF"></path><path fill-rule="evenodd" clip-rule="evenodd" d="M9.5 3.5C10.6009 2.40168 11.9343 2.23502 13.5 3C12.3181 4.76827 10.9848 4.93493 9.5 3.5Z" fill="#657E6C"></path><path opacity="0.961" fill-rule="evenodd" clip-rule="evenodd" d="M4.5 2.5C7.32914 4.97836 10.6625 5.97836 14.5 5.5C11.9723 6.16569 9.3056 6.83236 6.5 7.5C6.62358 8.10667 6.95691 8.44001 7.5 8.5C7.32842 9.49162 7.66175 10.1583 8.5 10.5C10.3691 11.1646 12.3691 11.8313 14.5 12.5C9.27021 13.9247 9.27021 15.0914 14.5 16C12.0632 17.3747 9.39653 17.8747 6.5 17.5C5.98988 14.0172 5.32321 10.6838 4.5 7.5C4.5 5.83333 4.5 4.16667 4.5 2.5Z" fill="#7FBCC3"></path><path opacity="0.92" fill-rule="evenodd" clip-rule="evenodd" d="M18.5 2.5C18.4921 5.54483 18.1587 8.54483 17.5 11.5C16.8333 10.8333 16.1667 10.1667 15.5 9.5C13.0521 8.52693 10.3854 8.1936 7.5 8.5C6.95691 8.44001 6.62358 8.10667 6.5 7.5C9.3056 6.83236 11.9723 6.16569 14.5 5.5C15.4363 4.02561 16.7697 3.02561 18.5 2.5Z" fill="#86C1C6"></path><path fill-rule="evenodd" clip-rule="evenodd" d="M7.5 8.5C10.3854 8.1936 13.0521 8.52693 15.5 9.5C13.283 10.3686 10.9496 10.702 8.5 10.5C7.66175 10.1583 7.32842 9.49162 7.5 8.5Z" fill="#B095B2"></path><path fill-rule="evenodd" clip-rule="evenodd" d="M15.5 9.5C16.1667 10.1667 16.8333 10.8333 17.5 11.5C17.552 13.9029 17.2186 16.2362 16.5 18.5C13.1667 18.5 9.83333 18.5 6.5 18.5C6.5 18.1667 6.5 17.8333 6.5 17.5C9.39653 17.8747 12.0632 17.3747 14.5 16C9.27021 15.0914 9.27021 13.9247 14.5 12.5C12.3691 11.8313 10.3691 11.1646 8.5 10.5C10.9497 10.702 13.283 10.3686 15.5 9.5Z" fill="#98C1C8"></path><path fill-rule="evenodd" clip-rule="evenodd" d="M6.5 18.5C9.83333 18.5 13.1667 18.5 16.5 18.5C16.5 20.1667 16.5 21.8333 16.5 23.5C13.1667 23.5 9.83333 23.5 6.5 23.5C6.5 21.8333 6.5 20.1667 6.5 18.5Z" fill="#C76D91"></path></g><defs><clipPath id="clip0_10_1842"><rect width="15" height="24" fill="white" transform="translate(5)"></rect></clipPath></defs></svg>