<svg xmlns="http://www.w3.org/2000/svg" width="24" height="24" viewBox="0 0 24 24" fill="none"><g clip-path="url(#clip0_10_1842)"><rect width="24" height="24" fill="white"></rect><g clip-path="url(#clip1_10_1842)"><path opacity="0.827" fill-rule="evenodd" clip-rule="evenodd" d="M5.5 2.5C7.16667 2.5 8.83333 2.5 10.5 2.5C10.5 3.16667 10.5 3.83333 10.5 4.5C9.5 4.5 8.5 4.5 7.5 4.5C6.83333 4.5 6.16667 4.5 5.5 4.5C5.5 3.83333 5.5 3.16667 5.5 2.5Z" fill="#A98191"></path><path opacity="0.488" fill-rule="evenodd" clip-rule="evenodd" d="M4.5 2.5C4.83333 2.5 5.16667 2.5 5.5 2.5C5.5 3.16667 5.5 3.83333 5.5 4.5C5.16667 4.5 4.83333 4.5 4.5 4.5C2.90097 4.76781 1.56764 4.43448 0.5 3.5C2.09903 3.76781 3.43236 3.43448 4.5 2.5Z" fill="#B1839C"></path><path fill-rule="evenodd" clip-rule="evenodd" d="M12.5 2.5C12.8333 2.5 13.1667 2.5 13.5 2.5C14.5 3.16667 15.5 3.83333 16.5 4.5C15.1667 4.5 13.8333 4.5 12.5 4.5C12.5 3.83333 12.5 3.16667 12.5 2.5Z" fill="#A67A8D"></path><path opacity="0.835" fill-rule="evenodd" clip-rule="evenodd" d="M13.5 2.5C14.8333 2.5 16.1667 2.5 17.5 2.5C18.9187 3.45114 20.5853 3.78448 22.5 3.5C22.5 3.83333 22.5 4.16667 22.5 4.5C22.1667 4.5 21.8333 4.5 21.5 4.5C20.0413 4.43255 18.7079 4.76589 17.5 5.5C17.5 4.83333 17.1667 4.5 16.5 4.5C15.5 3.83333 14.5 3.16667 13.5 2.5Z" fill="#A87E8D"></path><path fill-rule="evenodd" clip-rule="evenodd" d="M-0.5 3.5C-0.166667 3.5 0.166667 3.5 0.5 3.5C1.56764 4.43448 2.90097 4.76781 4.5 4.5C3.69354 5.72813 2.69354 6.72813 1.5 7.5C1.16667 7.5 0.833333 7.5 0.5 7.5C0.67158 6.50838 0.338246 5.84171 -0.5 5.5C-0.5 4.83333 -0.5 4.16667 -0.5 3.5Z" fill="#AA8697"></path><path fill-rule="evenodd" clip-rule="evenodd" d="M7.5 4.5C8.5 4.5 9.5 4.5 10.5 4.5C10.5 5.16667 10.5 5.83333 10.5 6.5C9.83333 6.5 9.16667 6.5 8.5 6.5C8.16667 5.83333 7.83333 5.16667 7.5 4.5Z" fill="#DDCFD7"></path><path fill-rule="evenodd" clip-rule="evenodd" d="M5.5 4.5C6.16667 4.5 6.83333 4.5 7.5 4.5C7.83333 5.16667 8.16667 5.83333 8.5 6.5C6.82124 6.71481 5.82124 6.04814 5.5 4.5Z" fill="#D4BEC5"></path><path fill-rule="evenodd" clip-rule="evenodd" d="M10.5 2.5C11.1667 2.5 11.8333 2.5 12.5 2.5C12.5 3.16667 12.5 3.83333 12.5 4.5C12.5 5.5 12.5 6.5 12.5 7.5C11.8333 7.5 11.1667 7.5 10.5 7.5C10.5 7.16667 10.5 6.83333 10.5 6.5C10.5 5.83333 10.5 5.16667 10.5 4.5C10.5 3.83333 10.5 3.16667 10.5 2.5Z" fill="#8D798F"></path><path fill-rule="evenodd" clip-rule="evenodd" d="M12.5 4.5C13.8333 4.5 15.1667 4.5 16.5 4.5C17.1667 4.5 17.5 4.83333 17.5 5.5C17.5 5.83333 17.5 6.16667 17.5 6.5C16.209 6.26269 15.209 6.59603 14.5 7.5C14.1667 7.5 13.8333 7.5 13.5 7.5C13.1667 7.5 12.8333 7.5 12.5 7.5C12.5 6.5 12.5 5.5 12.5 4.5Z" fill="#D9C9D2"></path><path fill-rule="evenodd" clip-rule="evenodd" d="M21.5 4.5C20.7095 5.40128 19.7095 6.06795 18.5 6.5C18.1667 6.5 17.8333 6.5 17.5 6.5C17.5 6.16667 17.5 5.83333 17.5 5.5C18.7079 4.76589 20.0413 4.43255 21.5 4.5Z" fill="#BB9BA5"></path><path fill-rule="evenodd" clip-rule="evenodd" d="M21.5 4.5C21.8333 4.5 22.1667 4.5 22.5 4.5C22.5 5.5 22.5 6.5 22.5 7.5C22.1667 7.5 21.8333 7.5 21.5 7.5C20.8333 7.5 20.1667 7.5 19.5 7.5C19.1667 7.5 18.8333 7.5 18.5 7.5C18.5 7.16667 18.5 6.83333 18.5 6.5C19.7095 6.06795 20.7095 5.40128 21.5 4.5Z" fill="#B48999"></path><path fill-rule="evenodd" clip-rule="evenodd" d="M4.5 4.5C4.83333 4.5 5.16667 4.5 5.5 4.5C5.82124 6.04814 6.82124 6.71481 8.5 6.5C9.16667 6.5 9.83333 6.5 10.5 6.5C10.5 6.83333 10.5 7.16667 10.5 7.5C8.90097 7.23219 7.56764 7.56552 6.5 8.5C5.83333 8.5 5.16667 8.5 4.5 8.5C4.15829 7.66175 3.49162 7.32842 2.5 7.5C2.16667 7.5 1.83333 7.5 1.5 7.5C2.69354 6.72813 3.69354 5.72813 4.5 4.5Z" fill="#B9919F"></path><path fill-rule="evenodd" clip-rule="evenodd" d="M14.5 7.5C15.209 6.59603 16.209 6.26269 17.5 6.5C17.8333 6.5 18.1667 6.5 18.5 6.5C18.5 6.83333 18.5 7.16667 18.5 7.5C18.1583 8.33825 17.4916 8.67158 16.5 8.5C16.1583 7.66175 15.4916 7.32842 14.5 7.5Z" fill="#B88F9D"></path><path opacity="0.672" fill-rule="evenodd" clip-rule="evenodd" d="M22.5 3.5C23.8111 7.6829 23.8111 12.0162 22.5 16.5C21.8933 16.3764 21.56 16.0431 21.5 15.5C22.1667 15.5 22.5 15.1667 22.5 14.5C22.5 12.1667 22.5 9.83333 22.5 7.5C22.5 6.5 22.5 5.5 22.5 4.5C22.5 4.16667 22.5 3.83333 22.5 3.5Z" fill="#6F6772"></path><path fill-rule="evenodd" clip-rule="evenodd" d="M2.5 7.5C3.49162 7.32842 4.15829 7.66175 4.5 8.5C4.5 9.5 4.5 10.5 4.5 11.5C2.82351 10.8166 2.15684 9.48324 2.5 7.5Z" fill="#E1D8DF"></path><path fill-rule="evenodd" clip-rule="evenodd" d="M6.5 8.50001C7.56764 7.56553 8.90097 7.2322 10.5 7.50001C10.8333 8.16668 11.1667 8.83333 11.5 9.50001C10.8333 11.8333 10.1667 14.1667 9.5 16.5C9.16667 16.5 8.83333 16.5 8.5 16.5C8.5 16.1667 8.5 15.8333 8.5 15.5C9.43448 14.4324 9.76781 13.099 9.5 11.5C9.5 11.1667 9.5 10.8333 9.5 10.5C9.02694 9.09369 8.02694 8.42703 6.5 8.50001Z" fill="#B0808F"></path><path fill-rule="evenodd" clip-rule="evenodd" d="M21.5 7.5C21.8333 7.5 22.1667 7.5 22.5 7.5C22.5 9.83333 22.5 12.1667 22.5 14.5C21.1667 14.5 19.8333 14.5 18.5 14.5C18.5 14.1667 18.5 13.8333 18.5 13.5C20.0269 13.573 21.0269 12.9063 21.5 11.5C21.5 10.1667 21.5 8.83333 21.5 7.5Z" fill="#A08699"></path><path fill-rule="evenodd" clip-rule="evenodd" d="M18.5 7.5C18.8333 7.5 19.1667 7.5 19.5 7.5C19.4431 8.60895 19.1098 9.60895 18.5 10.5C17.8333 10.5 17.1667 10.5 16.5 10.5C15.5 10.5 14.5 10.5 13.5 10.5C13.9731 9.09368 14.9731 8.42702 16.5 8.5C17.4916 8.67158 18.1583 8.33825 18.5 7.5Z" fill="#E0D2D5"></path><path fill-rule="evenodd" clip-rule="evenodd" d="M4.5 8.5C5.16667 8.5 5.83333 8.5 6.5 8.5C8.02694 8.42702 9.02694 9.09368 9.5 10.5C7.70848 10.366 6.04181 10.6993 4.5 11.5C4.5 10.5 4.5 9.5 4.5 8.5Z" fill="#D8CBD5"></path><path fill-rule="evenodd" clip-rule="evenodd" d="M13.5 7.5C13.8333 7.5 14.1667 7.5 14.5 7.5C15.4916 7.32842 16.1583 7.66175 16.5 8.5C14.9731 8.42702 13.9731 9.09368 13.5 10.5C13.5 10.8333 13.5 11.1667 13.5 11.5C13.1667 11.5 12.8333 11.5 12.5 11.5C12.4326 10.0412 12.7659 8.70792 13.5 7.5Z" fill="#A47889"></path><path fill-rule="evenodd" clip-rule="evenodd" d="M19.5 7.5C20.1667 7.5 20.8333 7.5 21.5 7.5C21.5 8.83333 21.5 10.1667 21.5 11.5C20.5 11.5 19.5 11.5 18.5 11.5C18.5 11.1667 18.5 10.8333 18.5 10.5C19.1098 9.60895 19.4431 8.60895 19.5 7.5Z" fill="#E2D6DF"></path><path fill-rule="evenodd" clip-rule="evenodd" d="M9.5 10.5C9.5 10.8333 9.5 11.1667 9.5 11.5C8.39105 11.5569 7.39105 11.8902 6.5 12.5C5.50838 12.6716 4.84171 12.3382 4.5 11.5C6.04181 10.6993 7.70848 10.366 9.5 10.5Z" fill="#B3A4B4"></path><path fill-rule="evenodd" clip-rule="evenodd" d="M10.5 7.5C11.1667 7.5 11.8333 7.5 12.5 7.5C12.8333 7.5 13.1667 7.5 13.5 7.5C12.7659 8.70792 12.4326 10.0412 12.5 11.5C12.5 11.8333 12.5 12.1667 12.5 12.5C11.596 11.7911 11.2627 10.791 11.5 9.5C11.1667 8.83333 10.8333 8.16667 10.5 7.5Z" fill="#91828F"></path><path fill-rule="evenodd" clip-rule="evenodd" d="M13.5 10.5C14.5 10.5 15.5 10.5 16.5 10.5C16.5 11.1667 16.5 11.8333 16.5 12.5C15.5 12.5 14.5 12.5 13.5 12.5C13.5 12.1667 13.5 11.8333 13.5 11.5C13.5 11.1667 13.5 10.8333 13.5 10.5Z" fill="#C5B9C2"></path><path fill-rule="evenodd" clip-rule="evenodd" d="M16.5 10.5C17.1667 10.5 17.8333 10.5 18.5 10.5C18.5 10.8333 18.5 11.1667 18.5 11.5C18.5 12.1667 18.5 12.8333 18.5 13.5C18.5 13.8333 18.5 14.1667 18.5 14.5C18.1667 14.5 17.8333 14.5 17.5 14.5C17.6716 13.5084 17.3382 12.8417 16.5 12.5C16.5 11.8333 16.5 11.1667 16.5 10.5Z" fill="#D0AD91"></path><path fill-rule="evenodd" clip-rule="evenodd" d="M18.5 11.5C19.5 11.5 20.5 11.5 21.5 11.5C21.0269 12.9063 20.0269 13.573 18.5 13.5C18.5 12.8333 18.5 12.1667 18.5 11.5Z" fill="#C7B5C1"></path><path fill-rule="evenodd" clip-rule="evenodd" d="M1.50001 7.5C1.83334 7.5 2.16668 7.5 2.50001 7.5C2.15685 9.48324 2.82352 10.8166 4.50001 11.5C4.84172 12.3382 5.50839 12.6716 6.50001 12.5C6.16668 13.1667 5.83334 13.8333 5.50001 14.5C2.01313 13.5168 0.679799 11.1834 1.50001 7.5Z" fill="#C7B9C6"></path><path fill-rule="evenodd" clip-rule="evenodd" d="M9.5 11.5C9.76781 13.099 9.43448 14.4324 8.5 15.5C7.60895 14.8902 6.60895 14.5569 5.5 14.5C5.83333 13.8333 6.16667 13.1667 6.5 12.5C7.39105 11.8902 8.39105 11.5569 9.5 11.5Z" fill="#CEC4CF"></path><path fill-rule="evenodd" clip-rule="evenodd" d="M13.5 12.5C14.5 12.5 15.5 12.5 16.5 12.5C17.3382 12.8417 17.6716 13.5084 17.5 14.5C16.5084 14.3284 15.8417 14.6618 15.5 15.5C13.9519 15.1788 13.2852 14.1788 13.5 12.5Z" fill="#DCC8B3"></path><path opacity="0.882" fill-rule="evenodd" clip-rule="evenodd" d="M-0.5 5.5C0.338246 5.84171 0.67158 6.50838 0.5 7.5C0.131516 10.5331 0.798183 13.1998 2.5 15.5C1.60895 16.1098 0.608953 16.4431 -0.5 16.5C-0.5 12.8333 -0.5 9.16667 -0.5 5.5Z" fill="#6F6B75"></path><path fill-rule="evenodd" clip-rule="evenodd" d="M0.499989 7.5C0.833322 7.5 1.16666 7.5 1.49999 7.5C0.679779 11.1834 2.01311 13.5168 5.49999 14.5C5.49999 15.1667 5.49999 15.8333 5.49999 16.5C4.39104 16.4431 3.39104 16.1098 2.49999 15.5C0.798172 13.1998 0.131505 10.5331 0.499989 7.5Z" fill="#9C899B"></path><path fill-rule="evenodd" clip-rule="evenodd" d="M17.5 14.5C17.8333 14.5 18.1667 14.5 18.5 14.5C19.8333 14.5 21.1667 14.5 22.5 14.5C22.5 15.1667 22.1667 15.5 21.5 15.5C20.1667 15.8333 18.8333 16.1667 17.5 16.5C16.8333 16.5 16.1667 16.5 15.5 16.5C15.5 16.1667 15.5 15.8333 15.5 15.5C15.8417 14.6618 16.5084 14.3284 17.5 14.5Z" fill="#988995"></path><path fill-rule="evenodd" clip-rule="evenodd" d="M5.5 14.5C6.60895 14.5569 7.60895 14.8902 8.5 15.5C8.5 15.8333 8.5 16.1667 8.5 16.5C7.83333 16.5 7.16667 16.5 6.5 16.5C6.16667 16.5 5.83333 16.5 5.5 16.5C5.5 15.8333 5.5 15.1667 5.5 14.5Z" fill="#A58D9C"></path><path fill-rule="evenodd" clip-rule="evenodd" d="M12.5 11.5C12.8333 11.5 13.1667 11.5 13.5 11.5C13.5 11.8333 13.5 12.1667 13.5 12.5C13.2852 14.1788 13.9519 15.1788 15.5 15.5C15.5 15.8333 15.5 16.1667 15.5 16.5C14.5 16.5 13.5 16.5 12.5 16.5C12.5 15.1667 12.5 13.8333 12.5 12.5C12.5 12.1667 12.5 11.8333 12.5 11.5Z" fill="#AB828D"></path><path opacity="0.729" fill-rule="evenodd" clip-rule="evenodd" d="M6.5 16.5C7.16667 16.5 7.83333 16.5 8.5 16.5C8.83333 16.5 9.16667 16.5 9.5 16.5C9.5 17.1667 9.5 17.8333 9.5 18.5C7.97306 18.573 6.97306 17.9063 6.5 16.5Z" fill="#908793"></path><path fill-rule="evenodd" clip-rule="evenodd" d="M11.5 9.5C11.2627 10.791 11.596 11.7911 12.5 12.5C12.5 13.8333 12.5 15.1667 12.5 16.5C13.5 16.5 14.5 16.5 15.5 16.5C16.1667 16.5 16.8333 16.5 17.5 16.5C16.791 17.404 15.791 17.7373 14.5 17.5C13.1667 17.8333 11.8333 18.1667 10.5 18.5C10.1667 18.5 9.83333 18.5 9.5 18.5C9.5 17.8333 9.5 17.1667 9.5 16.5C10.1667 14.1667 10.8333 11.8333 11.5 9.5Z" fill="#998A9A"></path><path opacity="0.582" fill-rule="evenodd" clip-rule="evenodd" d="M14.5 17.5C13.3995 18.6049 12.7329 19.9382 12.5 21.5C11.8333 21.5 11.1667 21.5 10.5 21.5C10.5 20.5 10.5 19.5 10.5 18.5C11.8333 18.1667 13.1667 17.8333 14.5 17.5Z" fill="#87808A"></path></g></g><defs><clipPath id="clip0_10_1842"><rect width="24" height="24" fill="white"></rect></clipPath><clipPath id="clip1_10_1842"><rect width="25" height="19" fill="white" transform="translate(0 3)"></rect></clipPath></defs></svg>