<svg xmlns="http://www.w3.org/2000/svg" width="24" height="24" viewBox="0 0 24 24" fill="none"><g clip-path="url(#clip0_10_1842)"><rect width="24" height="24" fill="white"></rect><g clip-path="url(#clip1_10_1842)"><path opacity="0.922" fill-rule="evenodd" clip-rule="evenodd" d="M1.5 0.5C2.83333 0.5 4.16667 0.5 5.5 0.5C5.26269 1.79105 5.59603 2.79105 6.5 3.5C7.00654 4.85892 8.00654 5.85892 9.5 6.5C8.39836 7.17566 7.39836 7.84233 6.5 8.5C5.81056 9.77359 4.97722 9.77359 4 8.5C3.50649 10.1341 3.33982 11.8008 3.5 13.5C2.55106 9.3435 1.88439 5.01016 1.5 0.5Z" fill="#D56C59"></path><path opacity="0.953" fill-rule="evenodd" clip-rule="evenodd" d="M10.5 0.5C11.8333 0.5 13.1667 0.5 14.5 0.5C14.1667 3.83333 13.8333 7.16667 13.5 10.5C15.099 10.2322 16.4324 10.5655 17.5 11.5C17.5 12.1667 17.5 12.8333 17.5 13.5C16.1779 13.33 15.0113 13.6634 14 14.5C14.0773 13.2624 13.9106 12.2624 13.5 11.5C11.9291 12.3094 10.2624 12.6427 8.5 12.5C8.84316 10.5168 8.17649 9.18342 6.5 8.5C7.39836 7.84233 8.39836 7.17566 9.5 6.5C8.00654 5.85892 7.00654 4.85892 6.5 3.5C7.83333 3.5 9.16667 3.5 10.5 3.5C10.5 2.5 10.5 1.5 10.5 0.5Z" fill="#D9715D"></path><path fill-rule="evenodd" clip-rule="evenodd" d="M6.50001 8.5C8.1765 9.18342 8.84317 10.5168 8.50001 12.5C8.91754 13.2216 9.58421 13.7216 10.5 14C9.24403 14.4169 8.57736 15.2502 8.50001 16.5C8.16668 17.8333 7.83334 17.8333 7.50001 16.5C7.71482 14.8212 7.04815 13.8212 5.50001 13.5C4.83334 13.5 4.16668 13.5 3.50001 13.5C3.33983 11.8008 3.5065 10.1341 4.00001 8.5C4.97723 9.77359 5.81057 9.77359 6.50001 8.5Z" fill="#D66552"></path><path fill-rule="evenodd" clip-rule="evenodd" d="M17.5 13.5C17.9382 13.4346 18.2716 13.6012 18.5 14C17.8333 14.3333 17.1667 14.6667 16.5 15C17.6526 16.883 19.3193 17.7163 21.5 17.5C21.5 17.8333 21.5 18.1667 21.5 18.5C19.6568 19.2829 17.6568 19.9495 15.5 20.5C14.5481 18.9547 14.2148 17.288 14.5 15.5C13.5 15.5 12.5 15.5 11.5 15.5C11.5 17.1667 11.5 18.8333 11.5 20.5C8.07398 20.6503 7.74065 19.4837 10.5 17C9.90558 16.5357 9.23891 16.369 8.5 16.5C8.57735 15.2502 9.24402 14.4169 10.5 14C9.5842 13.7216 8.91753 13.2216 8.5 12.5C10.2624 12.6427 11.9291 12.3094 13.5 11.5C13.9106 12.2624 14.0773 13.2624 14 14.5C15.0113 13.6634 16.1779 13.33 17.5 13.5Z" fill="#D76753"></path><path fill-rule="evenodd" clip-rule="evenodd" d="M17.5 11.5C19.8218 12.8021 21.1551 14.8021 21.5 17.5C19.3193 17.7163 17.6526 16.883 16.5 15C17.1667 14.6667 17.8333 14.3333 18.5 14C18.2716 13.6012 17.9382 13.4346 17.5 13.5C17.5 12.8333 17.5 12.1667 17.5 11.5Z" fill="#D87866"></path><path fill-rule="evenodd" clip-rule="evenodd" d="M21.5 18.5C22.525 18.8966 22.6917 19.5632 22 20.5C16.9757 22.7184 11.8091 23.0517 6.5 21.5C6.42265 20.2502 5.75598 19.4169 4.5 19C5.69057 18.3021 6.69057 17.4687 7.5 16.5C7.83333 17.8333 8.16667 17.8333 8.5 16.5C9.23891 16.369 9.90558 16.5357 10.5 17C7.74065 19.4837 8.07398 20.6503 11.5 20.5C11.5 18.8333 11.5 17.1667 11.5 15.5C12.5 15.5 13.5 15.5 14.5 15.5C14.2148 17.288 14.5481 18.9547 15.5 20.5C17.6568 19.9495 19.6568 19.2829 21.5 18.5Z" fill="#D86F5C"></path><path fill-rule="evenodd" clip-rule="evenodd" d="M5.5 13.5C7.04814 13.8212 7.71481 14.8212 7.5 16.5C6.69057 17.4687 5.69057 18.3021 4.5 19C5.75598 19.4169 6.42265 20.2502 6.5 21.5C4.65358 21.7778 3.32025 21.1112 2.5 19.5C3.12857 17.2592 4.12857 15.2592 5.5 13.5Z" fill="#D4715F"></path></g></g><defs><clipPath id="clip0_10_1842"><rect width="24" height="24" fill="white"></rect></clipPath><clipPath id="clip1_10_1842"><rect width="25" height="23" fill="white" transform="translate(1 1)"></rect></clipPath></defs></svg>