<svg xmlns="http://www.w3.org/2000/svg" width="26" height="26" viewBox="0 0 26 26" fill="none"><rect width="26" height="26" fill="white"></rect><path d="M23.0325 10.9122C23.2659 10.8636 23.4752 10.7357 23.625 10.5502C23.7747 10.3648 23.8557 10.1332 23.8541 9.89486V7.73784C23.8536 7.27711 23.6703 6.8354 23.3445 6.50961C23.0187 6.18382 22.577 6.00055 22.1163 6H4.73787C4.27713 6.00055 3.83542 6.18382 3.50963 6.50961C3.18385 6.8354 3.00057 7.27711 3.00002 7.73784V9.89486C2.99846 10.1332 3.07944 10.3648 3.22921 10.5502C3.37898 10.7357 3.58832 10.8636 3.82167 10.9122C4.37432 11.0215 4.8719 11.3192 5.22953 11.7544C5.58715 12.1897 5.78264 12.7356 5.78264 13.2989C5.78264 13.8623 5.58715 14.4082 5.22953 14.8434C4.8719 15.2787 4.37432 15.5764 3.82167 15.6857C3.58832 15.7343 3.37898 15.8622 3.22921 16.0477C3.07944 16.2331 2.99846 16.4647 3.00002 16.703V18.86C3.00057 19.3208 3.18385 19.7625 3.50963 20.0883C3.83542 20.4141 4.27713 20.5973 4.73787 20.5979H22.1163C22.577 20.5973 23.0187 20.4141 23.3445 20.0883C23.6703 19.7625 23.8536 19.3208 23.8541 18.86V16.703C23.8557 16.4647 23.7747 16.2331 23.625 16.0477C23.4752 15.8622 23.2659 15.7343 23.0325 15.6857C22.4799 15.5764 21.9823 15.2787 21.6246 14.8434C21.267 14.4082 21.0715 13.8623 21.0715 13.2989C21.0715 12.7356 21.267 12.1897 21.6246 11.7544C21.9823 11.3192 22.4799 11.0215 23.0325 10.9122Z" fill="#FFCE4A"></path><path d="M15.86 11.7349C15.9983 11.7349 16.1309 11.68 16.2287 11.5822C16.3265 11.4844 16.3814 11.3518 16.3814 11.2135V10.866C16.3808 10.3591 16.1793 9.87323 15.8209 9.51485C15.4625 9.15647 14.9766 8.95489 14.4698 8.95433H13.9484V8.43298C13.9484 8.29471 13.8935 8.1621 13.7957 8.06433C13.6979 7.96656 13.5653 7.91163 13.4271 7.91163C13.2888 7.91163 13.1562 7.96656 13.0584 8.06433C12.9606 8.1621 12.9057 8.29471 12.9057 8.43298V8.95433H12.3844C11.8775 8.95489 11.3916 9.15647 11.0332 9.51485C10.6749 9.87323 10.4733 10.3591 10.4727 10.866V11.9087C10.4733 12.4155 10.6749 12.9014 11.0332 13.2598C11.3916 13.6182 11.8775 13.8197 12.3844 13.8203H12.9057V16.6008H12.3844C12.1539 16.6008 11.9329 16.5093 11.7699 16.3463C11.607 16.1834 11.5154 15.9624 11.5154 15.7319V15.3844C11.5154 15.2461 11.4605 15.1135 11.3627 15.0157C11.265 14.9179 11.1323 14.863 10.9941 14.863C10.8558 14.863 10.7232 14.9179 10.6254 15.0157C10.5277 15.1135 10.4727 15.2461 10.4727 15.3844V15.7319C10.4733 16.2388 10.6749 16.7247 11.0332 17.083C11.3916 17.4414 11.8775 17.643 12.3844 17.6436H12.9057V18.1649C12.9057 18.3032 12.9606 18.4358 13.0584 18.5336C13.1562 18.6313 13.2888 18.6863 13.4271 18.6863C13.5653 18.6863 13.6979 18.6313 13.7957 18.5336C13.8935 18.4358 13.9484 18.3032 13.9484 18.1649V17.6436H14.4698C14.9766 17.643 15.4625 17.4414 15.8209 17.083C16.1793 16.7247 16.3808 16.2388 16.3814 15.7319V14.6892C16.3808 14.1824 16.1793 13.6965 15.8209 13.3381C15.4625 12.9797 14.9766 12.7781 14.4698 12.7776H13.9484V9.99704H14.4698C14.7002 9.99704 14.9212 10.0886 15.0842 10.2515C15.2471 10.4145 15.3387 10.6355 15.3387 10.866V11.2135C15.3387 11.3518 15.3936 11.4844 15.4914 11.5822C15.5892 11.68 15.7218 11.7349 15.86 11.7349ZM14.4698 13.8203C14.7002 13.8203 14.9212 13.9118 15.0842 14.0748C15.2471 14.2378 15.3387 14.4588 15.3387 14.6892V15.7319C15.3387 15.9624 15.2471 16.1834 15.0842 16.3463C14.9212 16.5093 14.7002 16.6008 14.4698 16.6008H13.9484V13.8203H14.4698ZM12.9057 12.7776H12.3844C12.1539 12.7776 11.9329 12.686 11.7699 12.5231C11.607 12.3601 11.5154 12.1391 11.5154 11.9087V10.866C11.5154 10.6355 11.607 10.4145 11.7699 10.2515C11.9329 10.0886 12.1539 9.99704 12.3844 9.99704H12.9057V12.7776Z" fill="#666666"></path></svg>