<svg xmlns="http://www.w3.org/2000/svg" width="25" height="26" viewBox="0 0 25 26" fill="none"><g clip-path="url(#clip0_10_1843)"><path opacity="0.337" fill-rule="evenodd" clip-rule="evenodd" d="M5.40909 0.490387C6.86363 0.490387 8.31818 0.490387 9.77272 0.490387C9.77272 0.81731 9.77272 1.14424 9.77272 1.47116C8.91422 3.04453 7.45967 3.69838 5.40909 3.43269C5.40909 2.45193 5.40909 1.47116 5.40909 0.490387Z" fill="#5DA5BB"></path><path fill-rule="evenodd" clip-rule="evenodd" d="M14.1364 0.490387C15.5909 0.490387 17.0455 0.490387 18.5 0.490387C18.5 1.47116 18.5 2.45193 18.5 3.43269C18.9492 5.85773 17.8583 7.16542 15.2273 7.35577C15.2273 6.04808 15.2273 4.74038 15.2273 3.43269C15.1652 2.34507 14.8016 1.3643 14.1364 0.490387Z" fill="#559AB1"></path><path fill-rule="evenodd" clip-rule="evenodd" d="M9.77274 1.47116C9.77274 1.14424 9.77274 0.81731 9.77274 0.490387C11.2273 0.490387 12.6819 0.490387 14.1364 0.490387C14.8016 1.3643 15.1652 2.34507 15.2273 3.43269C13.9096 4.15269 12.455 4.47962 10.8636 4.41346C13.6443 3.10781 13.2806 2.12704 9.77274 1.47116Z" fill="#426977"></path><path fill-rule="evenodd" clip-rule="evenodd" d="M9.77272 1.47116C13.2805 2.12704 13.6442 3.10781 10.8636 4.41347C9.17475 4.72853 8.44747 5.7093 8.68181 7.35578C6.0508 7.16543 4.95989 5.85774 5.40908 3.4327C7.45966 3.69838 8.91422 3.04453 9.77272 1.47116Z" fill="#478CA1"></path><path fill-rule="evenodd" clip-rule="evenodd" d="M15.2273 3.43269C15.2273 4.74038 15.2273 6.04808 15.2273 7.35577C15.2273 8.00962 14.8637 8.33654 14.1364 8.33654C12.6818 8.33654 11.2273 8.33654 9.77272 8.33654C9.04544 8.33654 8.68181 8.00962 8.68181 7.35577C8.44747 5.70929 9.17474 4.72853 10.8636 4.41346C12.4549 4.47962 13.9096 4.15269 15.2273 3.43269Z" fill="#55B8C8"></path><path opacity="0.747" fill-rule="evenodd" clip-rule="evenodd" d="M5.40908 0.490387C5.40908 1.47116 5.40908 2.45193 5.40908 3.43269C3.43678 4.82334 2.70951 6.78488 3.22726 9.31731C3.22726 9.64423 3.22726 9.97119 3.22726 10.2981C2.86363 10.2981 2.49999 10.2981 2.13635 10.2981C1.56445 6.44598 2.65536 3.17674 5.40908 0.490387Z" fill="#5D5051"></path><path fill-rule="evenodd" clip-rule="evenodd" d="M18.5 3.43269C20.2021 5.05698 21.293 7.01852 21.7727 9.31731C21.7727 9.97119 21.4091 10.2981 20.6818 10.2981C19.8653 11.3093 19.138 12.4534 18.5 13.7308C21.4091 14.3846 21.4091 15.0384 18.5 15.6923C19.5342 16.1658 20.6251 16.3293 21.7727 16.1827C21.9599 17.1552 21.5962 17.8091 20.6818 18.1442C19.472 18.2 18.3811 18.5269 17.4091 19.125C16.5356 17.6129 16.172 15.9782 16.3182 14.2212C17.081 12.2047 18.172 10.2432 19.5909 8.33654C19.409 8.00962 19.2273 7.68269 19.0454 7.35577C17.5185 8.57979 15.8821 9.56056 14.1364 10.2981C14.1364 9.64423 14.1364 8.99039 14.1364 8.33654C14.8637 8.33654 15.2273 8.00962 15.2273 7.35577C17.8583 7.16542 18.9492 5.85773 18.5 3.43269Z" fill="#29323E"></path><path opacity="0.427" fill-rule="evenodd" clip-rule="evenodd" d="M18.5 0.490387C21.1744 2.84032 22.2653 5.78263 21.7727 9.31731C21.2931 7.01852 20.2021 5.05699 18.5 3.43269C18.5 2.45193 18.5 1.47116 18.5 0.490387Z" fill="#5E5353"></path><path fill-rule="evenodd" clip-rule="evenodd" d="M5.4091 3.43269C4.95991 5.85773 6.05082 7.16542 8.68183 7.35577C8.68183 8.00962 9.04546 8.33654 9.77274 8.33654C9.77274 9.64423 9.77274 10.952 9.77274 12.2596C9.04546 11.9327 8.31819 11.6057 7.59092 11.2788C7.73384 10.5542 7.55202 9.90028 7.04546 9.31731C6.29275 8.10278 5.74729 8.10278 5.4091 9.31731C4.68182 9.31731 3.95456 9.31731 3.22728 9.31731C2.70952 6.78487 3.4368 4.82334 5.4091 3.43269Z" fill="#29434F"></path><path fill-rule="evenodd" clip-rule="evenodd" d="M9.77274 8.33653C11.2273 8.33653 12.6819 8.33653 14.1364 8.33653C14.1364 8.99038 14.1364 9.64422 14.1364 10.2981C14.1364 11.6057 13.4091 12.2596 11.9546 12.2596C13.1135 11.2049 13.1135 10.2241 11.9546 9.3173C11.2175 10.3977 10.4902 11.3785 9.77274 12.2596C9.77274 10.952 9.77274 9.64422 9.77274 8.33653Z" fill="#4F9AA5"></path><path fill-rule="evenodd" clip-rule="evenodd" d="M11.9545 12.2596C11.9545 12.5865 11.9545 12.9135 11.9545 13.2404C10.8728 13.0721 10.1455 13.3991 9.77271 14.2212C8.08383 13.9061 7.35656 12.9254 7.5909 11.2788C8.31817 11.6057 9.04544 11.9327 9.77271 12.2596C10.4902 11.3785 11.2174 10.3977 11.9545 9.31731C13.1135 10.2241 13.1135 11.2049 11.9545 12.2596Z" fill="#24505D"></path><path opacity="0.835" fill-rule="evenodd" clip-rule="evenodd" d="M2.13635 10.2981C2.49998 10.2981 2.86363 10.2981 3.22726 10.2981C4.11003 11.7963 4.83731 13.431 5.40908 15.2019C3.81771 15.268 2.36317 14.9411 1.04544 14.2212C1.50093 13.5134 2.2282 13.023 3.22726 12.75C2.40642 12.0921 2.04278 11.2748 2.13635 10.2981Z" fill="#393536"></path><path fill-rule="evenodd" clip-rule="evenodd" d="M16.3182 14.2212C15.5909 14.2212 14.8637 14.2212 14.1364 14.2212C13.7636 13.3991 13.0363 13.0721 11.9546 13.2404C11.9546 12.9135 11.9546 12.5865 11.9546 12.2596C13.4091 12.2596 14.1364 11.6057 14.1364 10.2981C15.8822 9.56056 17.5185 8.57979 19.0455 7.35577C19.2273 7.68269 19.4091 8.00962 19.5909 8.33654C18.172 10.2432 17.0811 12.2047 16.3182 14.2212Z" fill="#2E5B6B"></path><path fill-rule="evenodd" clip-rule="evenodd" d="M7.59091 11.2789C7.35657 12.9254 8.08384 13.9061 9.77272 14.2212C8.78506 15.6573 8.78506 16.965 9.77272 18.1442C9.04545 18.1442 8.31818 18.1442 7.59091 18.1442C6.86363 15.2019 6.13636 12.2596 5.40909 9.31731C5.74728 8.10279 6.29274 8.10279 7.04545 9.31731C7.552 9.90028 7.73383 10.5542 7.59091 11.2789Z" fill="#3E7A8A"></path><path fill-rule="evenodd" clip-rule="evenodd" d="M11.9545 13.2404C13.0363 13.0721 13.7636 13.3991 14.1364 14.2212C15.5596 17.5274 14.1051 18.8352 9.77273 18.1442C8.78507 16.965 8.78507 15.6573 9.77273 14.2212C10.1455 13.3991 10.8728 13.0721 11.9545 13.2404Z" fill="#293B42"></path><path opacity="0.958" fill-rule="evenodd" clip-rule="evenodd" d="M20.6818 10.2981C20.4598 12.1521 21.1871 13.6233 22.8636 14.7115C22.2571 15.0868 21.8935 15.5772 21.7727 16.1827C20.6251 16.3293 19.5342 16.1658 18.5 15.6923C21.4091 15.0384 21.4091 14.3847 18.5 13.7308C19.138 12.4534 19.8653 11.3093 20.6818 10.2981Z" fill="#3B393D"></path><path opacity="0.744" fill-rule="evenodd" clip-rule="evenodd" d="M1.04544 14.2212C2.36317 14.9411 3.81771 15.268 5.40908 15.2019C4.47711 16.7074 4.47711 18.0152 5.40908 19.125C5.40908 19.7789 5.40908 20.4327 5.40908 21.0865C4.6818 20.7597 3.95454 20.4327 3.22726 20.1058C2.49154 18.5504 1.76426 16.5888 1.04544 14.2212Z" fill="#35363D"></path><path fill-rule="evenodd" clip-rule="evenodd" d="M3.22726 10.2981C3.22726 9.97119 3.22726 9.64423 3.22726 9.31731C3.95454 9.31731 4.68181 9.31731 5.40908 9.31731C6.13636 12.2596 6.86362 15.2019 7.5909 18.1442C6.50913 17.9759 5.78186 18.3029 5.40908 19.125C4.47712 18.0152 4.47712 16.7074 5.40908 15.2019C4.83732 13.4309 4.11004 11.7963 3.22726 10.2981Z" fill="#242D38"></path><path fill-rule="evenodd" clip-rule="evenodd" d="M14.1364 14.2212C14.8637 14.2212 15.5909 14.2212 16.3182 14.2212C16.172 15.9782 16.5356 17.6129 17.4091 19.125C17.347 20.2127 16.9834 21.1934 16.3182 22.0673C13.0455 22.0673 9.77272 22.0673 6.5 22.0673C6.5 21.4134 6.13636 21.0865 5.40909 21.0865C5.40909 20.4327 5.40909 19.7789 5.40909 19.125C5.78186 18.3029 6.50914 17.9759 7.59091 18.1442C8.31818 18.1442 9.04545 18.1442 9.77272 18.1442C14.1051 18.8352 15.5596 17.5274 14.1364 14.2212Z" fill="#4A8D9F"></path><path opacity="0.771" fill-rule="evenodd" clip-rule="evenodd" d="M3.22727 20.1058C3.95454 20.4327 4.68181 20.7597 5.40909 21.0865C6.13636 21.0865 6.49999 21.4134 6.49999 22.0673C6.56205 23.155 6.92569 24.1358 7.5909 25.0096C6.86363 25.0096 6.13636 25.0096 5.40909 25.0096C3.83618 23.7155 3.10891 22.0808 3.22727 20.1058Z" fill="#4A4A4A"></path><path fill-rule="evenodd" clip-rule="evenodd" d="M6.5 22.0673C9.77273 22.0673 13.0455 22.0673 16.3182 22.0673C16.3182 23.0481 16.3182 24.0288 16.3182 25.0096C13.4091 25.0096 10.5 25.0096 7.59091 25.0096C6.92569 24.1357 6.56205 23.155 6.5 22.0673Z" fill="#2C2A2C"></path><path fill-rule="evenodd" clip-rule="evenodd" d="M20.6818 18.1442C20.7976 20.6732 20.0704 22.9618 18.5 25.0096C17.7727 25.0096 17.0455 25.0096 16.3182 25.0096C16.3182 24.0288 16.3182 23.0481 16.3182 22.0673C16.9834 21.1934 17.347 20.2127 17.4091 19.125C18.3811 18.5269 19.472 18.2 20.6818 18.1442Z" fill="#464649"></path></g><defs><clipPath id="clip0_10_1843"><rect width="24" height="25.5" fill="white" transform="translate(0.5)"></rect></clipPath></defs></svg>