<svg xmlns="http://www.w3.org/2000/svg" width="24" height="24" viewBox="0 0 24 24" fill="none"><rect width="24" height="24" fill="white"></rect><g clip-path="url(#clip0_10_1842)"><path fill-rule="evenodd" clip-rule="evenodd" d="M2.5 2.5C2.5 2.16667 2.5 1.83333 2.5 1.5C6.83333 1.5 11.1667 1.5 15.5 1.5C14.0813 2.45114 12.4147 2.78448 10.5 2.5C9.39105 2.55688 8.39105 2.89022 7.5 3.5C6.39105 3.55688 5.39105 3.89022 4.5 4.5C4.5 3.16667 3.83333 2.5 2.5 2.5Z" fill="#F5C29F"></path><path fill-rule="evenodd" clip-rule="evenodd" d="M15.5 1.5C17.1667 1.5 18.8333 1.5 20.5 1.5C20.5 1.83333 20.5 2.16667 20.5 2.5C19.1667 2.5 17.8333 2.5 16.5 2.5C16.5 3.83333 16.5 5.16667 16.5 6.5C15.8333 6.5 15.5 6.16667 15.5 5.5C13.7078 4.69088 11.7078 4.19088 9.5 4C10.056 3.61742 10.3893 3.11742 10.5 2.5C12.4147 2.78448 14.0813 2.45114 15.5 1.5Z" fill="#FDC292"></path><path fill-rule="evenodd" clip-rule="evenodd" d="M20.5 2.5C20.5 3.5 20.5 4.5 20.5 5.5C19.2921 6.23411 17.9587 6.56745 16.5 6.5C16.5 5.16667 16.5 3.83333 16.5 2.5C17.8333 2.5 19.1667 2.5 20.5 2.5Z" fill="#E8D4BC"></path><path fill-rule="evenodd" clip-rule="evenodd" d="M10.5 2.5C10.3893 3.11742 10.056 3.61742 9.5 4C11.7078 4.19088 13.7078 4.69088 15.5 5.5C14.8333 5.5 14.5 5.83333 14.5 6.5C11.7892 6.81507 9.45591 6.14841 7.5 4.5C7.5 4.16667 7.5 3.83333 7.5 3.5C8.39105 2.89022 9.39105 2.55688 10.5 2.5Z" fill="#FCBB86"></path><path fill-rule="evenodd" clip-rule="evenodd" d="M7.5 3.5C7.5 3.83333 7.5 4.16667 7.5 4.5C7.5 5.5 7.5 6.5 7.5 7.5C6.83333 7.5 6.5 7.83333 6.5 8.5C6.16667 8.5 5.83333 8.5 5.5 8.5C5.16667 8.5 4.83333 8.5 4.5 8.5C3.85917 7.51776 3.19251 6.51776 2.5 5.5C2.95689 4.70245 3.62356 4.36912 4.5 4.5C5.39105 3.89022 6.39105 3.55688 7.5 3.5Z" fill="#935C85"></path><path fill-rule="evenodd" clip-rule="evenodd" d="M7.5 4.5C9.45591 6.14841 11.7892 6.81507 14.5 6.5C14.1667 7.16667 13.8333 7.83333 13.5 8.5C11.8333 8.5 10.1667 8.5 8.5 8.5C8.5 7.83333 8.16667 7.5 7.5 7.5C7.5 6.5 7.5 5.5 7.5 4.5Z" fill="#FCAE74"></path><path opacity="0.478" fill-rule="evenodd" clip-rule="evenodd" d="M1.5 2.5C1.83333 2.5 2.16667 2.5 2.5 2.5C3.83333 2.5 4.5 3.16667 4.5 4.5C3.62356 4.36912 2.95689 4.70245 2.5 5.5C3.19251 6.51776 3.85917 7.51776 4.5 8.5C3.39105 8.55688 2.39105 8.89022 1.5 9.5C1.5 7.16667 1.5 4.83333 1.5 2.5Z" fill="#BAD8D0"></path><path fill-rule="evenodd" clip-rule="evenodd" d="M15.5 5.5C15.5 6.16667 15.8333 6.5 16.5 6.5C16.5 7.83333 16.5 9.16667 16.5 10.5C15.8333 10.5 15.5 10.1667 15.5 9.5C15.1583 8.66175 14.4916 8.32842 13.5 8.5C13.8333 7.83333 14.1667 7.16667 14.5 6.5C14.5 5.83333 14.8333 5.5 15.5 5.5Z" fill="#FEA766"></path><path fill-rule="evenodd" clip-rule="evenodd" d="M20.5 5.5C20.5 6.16667 20.5 6.83333 20.5 7.5C18.7215 8.66974 17.7215 10.3364 17.5 12.5C17.1667 12.5 16.8333 12.5 16.5 12.5C16.5 11.8333 16.5 11.1667 16.5 10.5C16.5 9.16667 16.5 7.83333 16.5 6.5C17.9587 6.56745 19.2921 6.23411 20.5 5.5Z" fill="#DEEDEA"></path><path fill-rule="evenodd" clip-rule="evenodd" d="M5.5 8.5C5.83333 8.5 6.16667 8.5 6.5 8.5C6.5 9.5 6.5 10.5 6.5 11.5C6.84171 12.3382 7.50838 12.6716 8.5 12.5C7.19376 13.4674 6.52709 14.8007 6.5 16.5C6.73731 17.791 6.40397 18.791 5.5 19.5C5.5 18.5 5.5 17.5 5.5 16.5C5.5 15.5 5.5 14.5 5.5 13.5C5.5 11.8333 5.5 10.1667 5.5 8.5Z" fill="#E9BC90"></path><path fill-rule="evenodd" clip-rule="evenodd" d="M7.5 7.5C8.16667 7.5 8.5 7.83333 8.5 8.5C7.16667 9.16667 7.16667 9.83333 8.5 10.5C9.16667 10.5 9.5 10.8333 9.5 11.5C8.5 11.5 7.5 11.5 6.5 11.5C6.5 10.5 6.5 9.5 6.5 8.5C6.5 7.83333 6.83333 7.5 7.5 7.5Z" fill="#FCB07A"></path><path fill-rule="evenodd" clip-rule="evenodd" d="M8.5 8.5C10.1667 8.5 11.8333 8.5 13.5 8.5C14.4916 8.32842 15.1583 8.66175 15.5 9.5C14.6618 9.84171 14.3284 10.5084 14.5 11.5C14.1667 11.5 13.8333 11.5 13.5 11.5C12.0045 9.655 10.3379 9.32167 8.5 10.5C7.16667 9.83333 7.16667 9.16667 8.5 8.5Z" fill="#FBCCAB"></path><path fill-rule="evenodd" clip-rule="evenodd" d="M8.5 10.5C10.3379 9.32167 12.0045 9.655 13.5 11.5C12.1667 11.5 10.8333 11.5 9.5 11.5C9.5 10.8333 9.16667 10.5 8.5 10.5Z" fill="#FCBC8F"></path><path fill-rule="evenodd" clip-rule="evenodd" d="M20.5 7.5C20.5 9.5 20.5 11.5 20.5 13.5C19.8333 13.5 19.1667 13.5 18.5 13.5C17.8333 13.5 17.5 13.1667 17.5 12.5C17.7215 10.3364 18.7215 8.66974 20.5 7.5Z" fill="#D4EDEB"></path><path fill-rule="evenodd" clip-rule="evenodd" d="M4.5 8.5C4.83333 8.5 5.16667 8.5 5.5 8.5C5.5 10.1667 5.5 11.8333 5.5 13.5C4.16667 13.5 2.83333 13.5 1.5 13.5C1.5 12.1667 1.5 10.8333 1.5 9.5C2.39105 8.89022 3.39105 8.55688 4.5 8.5Z" fill="#D5EDEB"></path><path fill-rule="evenodd" clip-rule="evenodd" d="M6.5 11.5C7.5 11.5 8.5 11.5 9.5 11.5C10.8333 11.5 12.1667 11.5 13.5 11.5C13.8333 11.5 14.1667 11.5 14.5 11.5C15.0431 11.56 15.3764 11.8933 15.5 12.5C14.675 13.3857 13.675 13.719 12.5 13.5C11.0412 13.5674 9.70792 13.2341 8.5 12.5C7.50838 12.6716 6.84171 12.3382 6.5 11.5Z" fill="#FCCFAF"></path><path fill-rule="evenodd" clip-rule="evenodd" d="M8.5 12.5C9.70792 13.2341 11.0412 13.5674 12.5 13.5C12.5 13.8333 12.5 14.1667 12.5 14.5C10.597 14.7959 8.93033 15.4625 7.5 16.5C7.16667 16.5 6.83333 16.5 6.5 16.5C6.52709 14.8007 7.19376 13.4674 8.5 12.5Z" fill="#FEA96C"></path><path fill-rule="evenodd" clip-rule="evenodd" d="M15.5 9.5C15.5 10.1667 15.8333 10.5 16.5 10.5C16.5 11.1667 16.5 11.8333 16.5 12.5C16.5 13.8333 16.5 15.1667 16.5 16.5C16.7373 17.791 16.404 18.791 15.5 19.5C15.5 18.5 15.5 17.5 15.5 16.5C14.5 15.8333 13.5 15.1667 12.5 14.5C12.5 14.1667 12.5 13.8333 12.5 13.5C13.675 13.719 14.675 13.3857 15.5 12.5C15.3764 11.8933 15.0431 11.56 14.5 11.5C14.3284 10.5084 14.6618 9.84171 15.5 9.5Z" fill="#FCAD6C"></path><path fill-rule="evenodd" clip-rule="evenodd" d="M1.5 13.5C2.83333 13.5 4.16667 13.5 5.5 13.5C5.5 14.5 5.5 15.5 5.5 16.5C4.84851 17.0906 4.18185 17.7573 3.5 18.5C2.81815 17.7573 2.15149 17.0906 1.5 16.5C1.5 15.5 1.5 14.5 1.5 13.5Z" fill="#B5D28F"></path><path fill-rule="evenodd" clip-rule="evenodd" d="M16.5 12.5C16.8333 12.5 17.1667 12.5 17.5 12.5C17.5 13.1667 17.8333 13.5 18.5 13.5C18.1568 15.4832 18.8235 16.8166 20.5 17.5C20.5 17.8333 20.5 18.1667 20.5 18.5C18.8007 18.4729 17.4674 17.8062 16.5 16.5C16.5 15.1667 16.5 13.8333 16.5 12.5Z" fill="#E3D650"></path><path fill-rule="evenodd" clip-rule="evenodd" d="M12.5 14.5C13.5 15.1667 14.5 15.8333 15.5 16.5C14.5 16.5 13.5 16.5 12.5 16.5C10.8333 16.5 9.16667 16.5 7.5 16.5C8.93033 15.4625 10.597 14.7959 12.5 14.5Z" fill="#EBA78C"></path><path opacity="0.624" fill-rule="evenodd" clip-rule="evenodd" d="M18.5 13.5C19.1667 13.5 19.8333 13.5 20.5 13.5C20.5 14.8333 20.5 16.1667 20.5 17.5C18.8235 16.8166 18.1568 15.4832 18.5 13.5Z" fill="#ABD4A6"></path><path fill-rule="evenodd" clip-rule="evenodd" d="M1.5 16.5C2.15149 17.0906 2.81815 17.7573 3.5 18.5C4.18185 17.7573 4.84851 17.0906 5.5 16.5C5.5 17.5 5.5 18.5 5.5 19.5C5.5 19.8333 5.5 20.1667 5.5 20.5C4.16667 20.5 2.83333 20.5 1.5 20.5C1.5 19.1667 1.5 17.8333 1.5 16.5Z" fill="#A1C9C3"></path><path fill-rule="evenodd" clip-rule="evenodd" d="M6.5 16.5C6.83333 16.5 7.16667 16.5 7.5 16.5C7.36899 17.2389 7.53566 17.9056 8 18.5C9.33333 17.1667 10.6667 17.1667 12 18.5C12.4643 17.9056 12.631 17.2389 12.5 16.5C13.5 16.5 14.5 16.5 15.5 16.5C15.5 17.5 15.5 18.5 15.5 19.5C15.5 19.8333 15.5 20.1667 15.5 20.5C12.1667 20.5 8.83333 20.5 5.5 20.5C5.5 20.1667 5.5 19.8333 5.5 19.5C6.40397 18.791 6.73731 17.791 6.5 16.5Z" fill="#D3CCDC"></path><path fill-rule="evenodd" clip-rule="evenodd" d="M7.5 16.5C9.16667 16.5 10.8333 16.5 12.5 16.5C12.631 17.2389 12.4643 17.9056 12 18.5C10.6667 17.1667 9.33333 17.1667 8 18.5C7.53566 17.9056 7.36899 17.2389 7.5 16.5Z" fill="#EAEAF2"></path><path opacity="0.196" fill-rule="evenodd" clip-rule="evenodd" d="M16.5 16.5C17.4674 17.8062 18.8007 18.4729 20.5 18.5C20.5 19.1667 20.5 19.8333 20.5 20.5C18.8333 20.5 17.1667 20.5 15.5 20.5C15.5 20.1667 15.5 19.8333 15.5 19.5C16.404 18.791 16.7373 17.791 16.5 16.5Z" fill="#B0BEA4"></path></g><defs><clipPath id="clip0_10_1842"><rect width="20" height="19" fill="white" transform="translate(2 2)"></rect></clipPath></defs></svg>