<svg xmlns="http://www.w3.org/2000/svg" width="26" height="26" viewBox="0 0 26 26" fill="none"><rect width="26" height="26" fill="white"></rect><path d="M13.3528 6.76007C13.3528 6.76007 14.8449 3.66887 18.4084 4.02922C18.5674 4.0469 18.7115 4.13096 18.8051 4.26064C19.1968 4.78255 19.3979 5.42288 19.3749 6.07506C19.3075 7.266 14.9101 8.18337 14.9101 8.18337L13.9782 7.99825L13.3528 6.76007Z" fill="#F6C863"></path><path d="M17.0705 7.23473C16.1608 7.57475 15.1978 7.74973 14.2267 7.75151C15.5238 6.57904 17.1755 5.87358 18.9194 5.74712C19.1249 5.73023 19.2017 5.96537 19.0603 6.11555C18.7417 6.45296 17.9317 6.9061 17.0705 7.23473Z" fill="#EAB54E"></path><path d="M13.3521 6.76007C13.3521 6.76007 11.8601 3.66887 8.29652 4.02922C8.13756 4.0469 7.99347 4.13096 7.89986 4.26064C7.50812 4.78255 7.30706 5.42288 7.33008 6.07506C7.39745 7.266 11.7948 8.18337 11.7948 8.18337L12.7268 7.99825L13.3521 6.76007Z" fill="#F6C863"></path><path d="M9.63431 7.23473C10.544 7.57475 11.507 7.74973 12.4781 7.75151C11.7527 7.10617 10.9182 6.59494 10.0139 6.24167C9.29752 5.97448 8.54754 5.80807 7.78544 5.74712C7.57994 5.73023 7.50309 5.96537 7.64449 6.11555C7.96203 6.45296 8.77432 6.9061 9.63431 7.23473Z" fill="#EAB54E"></path><path d="M13.2582 8.91009C13.8758 8.91009 14.3765 8.40942 14.3765 7.79182C14.3765 7.17421 13.8758 6.67355 13.2582 6.67355C12.6406 6.67355 12.1399 7.17421 12.1399 7.79182C12.1399 8.40942 12.6406 8.91009 13.2582 8.91009Z" fill="#EAB54E"></path><path d="M4.22934 7.79152H22.2849C22.4116 7.79152 22.5143 7.8942 22.5143 8.02086V11.003C22.5143 11.1297 22.4116 11.2324 22.2849 11.2324H4.22934C4.10269 11.2324 4 11.1297 4 11.003V8.02086C4 7.8942 4.10269 7.79152 4.22934 7.79152Z" fill="#EC2B04"></path><path d="M21.6024 10.6016V21.9571C21.602 22.0836 21.4995 22.1861 21.373 22.1865H5.14315C5.01666 22.1861 4.91418 22.0836 4.91381 21.9571V10.6016H21.6024Z" fill="#EC2B04"></path><path d="M4.91381 11.2324H21.6026V12.0353H4.91381V11.2324Z" fill="#DA364C"></path><path d="M11.9155 7.79152H14.6003V22.1861H11.9155V7.79152Z" fill="#F6C863"></path><path d="M11.9147 11.2324H14.6009V12.0353H11.9147V11.2324Z" fill="#EAB54E"></path></svg>