<svg xmlns="http://www.w3.org/2000/svg" width="24" height="24" viewBox="0 0 24 24" fill="none"><g clip-path="url(#clip0_10_1842)"><rect width="24" height="24" fill="white"></rect><path opacity="0.547" fill-rule="evenodd" clip-rule="evenodd" d="M9.50001 6.5C8.83334 6.5 8.16668 6.5 7.50001 6.5C6.95527 2.82837 6.62193 3.1617 6.50001 7.5C5.83334 7.5 5.16668 7.5 4.50001 7.5C4.50001 7.16667 4.50001 6.83333 4.50001 6.5C4.38378 3.08968 6.05045 1.75635 9.50001 2.5C9.50001 3.83333 9.50001 5.16667 9.50001 6.5Z" fill="#76767E"></path><path opacity="0.286" fill-rule="evenodd" clip-rule="evenodd" d="M21.5 8.5C20.8333 8.5 20.1667 8.5 19.5 8.5C20.6256 7.14168 20.6256 5.80835 19.5 4.5C18.7025 4.95689 18.3691 5.62356 18.5 6.5C17.8333 6.16667 17.1667 5.83333 16.5 5.5C18.7199 0.0882518 20.7199 0.254919 22.5 6C22.2568 6.90211 21.9234 7.73544 21.5 8.5Z" fill="#797A7D"></path><path opacity="0.473" fill-rule="evenodd" clip-rule="evenodd" d="M16.5 5.5C17.1667 5.83333 17.8333 6.16667 18.5 6.5C18.5 7.5 18.5 8.5 18.5 9.5C17.0413 9.43255 15.7079 9.76589 14.5 10.5C14.5 9.83333 14.5 9.16667 14.5 8.5C16.0481 8.17876 16.7148 7.17876 16.5 5.5Z" fill="#80818C"></path><path opacity="0.553" fill-rule="evenodd" clip-rule="evenodd" d="M4.5 6.5C4.5 6.83333 4.5 7.16667 4.5 7.5C4.29268 10.2406 3.29268 12.5739 1.5 14.5C1.98023 11.5568 2.98023 8.89016 4.5 6.5Z" fill="#9A9CA4"></path><path opacity="0.986" fill-rule="evenodd" clip-rule="evenodd" d="M4.5 7.5C5.16667 7.5 5.83333 7.5 6.5 7.5C6.32842 8.49162 6.66175 9.15829 7.5 9.5C8.20895 10.404 9.20895 10.7373 10.5 10.5C12.3786 10.3932 12.7119 10.8932 11.5 12C9.86586 12.4935 8.19919 12.6602 6.5 12.5C5.92317 11.2267 5.2565 11.2267 4.5 12.5C3.75415 13.7362 3.42082 15.0695 3.5 16.5C2.5 16.1667 1.83333 15.5 1.5 14.5C3.29268 12.5739 4.29268 10.2406 4.5 7.5Z" fill="#818490"></path><path opacity="0.553" fill-rule="evenodd" clip-rule="evenodd" d="M7.5 6.5C8.16667 6.5 8.83333 6.5 9.5 6.5C9.26269 7.79105 9.59603 8.79105 10.5 9.5C10.5 9.83333 10.5 10.1667 10.5 10.5C9.20895 10.7373 8.20895 10.404 7.5 9.5C7.5 8.5 7.5 7.5 7.5 6.5Z" fill="#68637A"></path><path fill-rule="evenodd" clip-rule="evenodd" d="M18.5 9.5C18.5 9.83333 18.5 10.1667 18.5 10.5C18.5 11.1667 18.5 11.8333 18.5 12.5C16.5168 12.8432 15.1834 12.1765 14.5 10.5C15.7079 9.76589 17.0413 9.43255 18.5 9.5Z" fill="#6D707B"></path><path opacity="0.424" fill-rule="evenodd" clip-rule="evenodd" d="M19.5 8.5C20.1667 8.5 20.8333 8.5 21.5 8.5C21.5 10.1667 21.5 11.8333 21.5 13.5C21.1583 14.3382 20.4916 14.6716 19.5 14.5C21.0311 13.0755 20.6977 12.4088 18.5 12.5C18.5 11.8333 18.5 11.1667 18.5 10.5C19.3382 10.1583 19.6716 9.49162 19.5 8.5Z" fill="#62626C"></path><path fill-rule="evenodd" clip-rule="evenodd" d="M14.5 8.50001C14.5 9.16668 14.5 9.83333 14.5 10.5C15.1834 12.1765 16.5168 12.8432 18.5 12.5C15.0381 13.4816 11.3714 13.815 7.5 13.5C6.83333 13.5 6.5 13.1667 6.5 12.5C8.19919 12.6602 9.86586 12.4935 11.5 12C12.7119 10.8932 12.3786 10.3932 10.5 10.5C10.5 10.1667 10.5 9.83334 10.5 9.50001C11.5676 8.56553 12.901 8.2322 14.5 8.50001Z" fill="#727582"></path><path fill-rule="evenodd" clip-rule="evenodd" d="M18.5 12.5C20.6977 12.4088 21.0311 13.0755 19.5 14.5C16.2869 14.19 13.2869 14.5233 10.5 15.5C9.29278 14.8112 7.95945 14.6446 6.5 15C7.05596 14.6174 7.38929 14.1174 7.5 13.5C11.3714 13.815 15.0381 13.4816 18.5 12.5Z" fill="#696C78"></path><path fill-rule="evenodd" clip-rule="evenodd" d="M6.50001 12.5C6.50001 13.1667 6.83334 13.5 7.50001 13.5C7.3893 14.1174 7.05597 14.6174 6.50001 15C7.95946 14.6446 9.29279 14.8112 10.5 15.5C10.5 15.8333 10.5 16.1667 10.5 16.5C10.5 17.1667 10.5 17.8333 10.5 18.5C7.91792 18.0254 5.91792 18.6921 4.50001 20.5C3.56553 19.4324 3.2322 18.099 3.50001 16.5C3.42083 15.0695 3.75416 13.7362 4.50001 12.5C5.25651 11.2267 5.92317 11.2267 6.50001 12.5Z" fill="#61636E"></path><path fill-rule="evenodd" clip-rule="evenodd" d="M19.5 14.5C19.5 15.1667 19.5 15.8333 19.5 16.5C18.8826 16.6107 18.3826 16.944 18 17.5C17.5831 16.244 16.7498 15.5774 15.5 15.5C13.7085 15.366 12.0418 15.6993 10.5 16.5C10.5 16.1667 10.5 15.8333 10.5 15.5C13.2869 14.5233 16.2869 14.19 19.5 14.5Z" fill="#61636E"></path><path opacity="0.991" fill-rule="evenodd" clip-rule="evenodd" d="M21.5 13.5C22.494 14.9989 22.494 16.6656 21.5 18.5C20.5 18.1667 19.8333 17.5 19.5 16.5C19.5 15.8333 19.5 15.1667 19.5 14.5C20.4916 14.6716 21.1583 14.3382 21.5 13.5Z" fill="#6D6D77"></path><path fill-rule="evenodd" clip-rule="evenodd" d="M15.5 15.5C16.8333 16.5 16.8333 17.5 15.5 18.5C14.5 18.5 13.5 18.5 12.5 18.5C11.8333 18.5 11.1667 18.5 10.5 18.5C10.5 17.8333 10.5 17.1667 10.5 16.5C12.0418 15.6993 13.7085 15.366 15.5 15.5Z" fill="#52535E"></path><path opacity="0.999" fill-rule="evenodd" clip-rule="evenodd" d="M15.5 15.5C16.7498 15.5774 17.5831 16.244 18 17.5C18.3826 16.944 18.8826 16.6107 19.5 16.5C19.8333 17.5 20.5 18.1667 21.5 18.5C20.3126 20.9754 18.3126 21.9754 15.5 21.5C15.5774 20.2502 16.244 19.4169 17.5 19C16.9056 18.5357 16.2389 18.369 15.5 18.5C16.8333 17.5 16.8333 16.5 15.5 15.5Z" fill="#5A5A64"></path><path opacity="0.778" fill-rule="evenodd" clip-rule="evenodd" d="M10.5 18.5C11.1667 18.5 11.8333 18.5 12.5 18.5C12.8333 19.1667 13.1667 19.8333 13.5 20.5C10.5 20.5 7.5 20.5 4.5 20.5C5.91791 18.6921 7.91791 18.0254 10.5 18.5Z" fill="#6A6C79"></path><path opacity="0.998" fill-rule="evenodd" clip-rule="evenodd" d="M12.5 18.5C13.5 18.5 14.5 18.5 15.5 18.5C16.2389 18.369 16.9056 18.5357 17.5 19C16.244 19.4169 15.5774 20.2502 15.5 21.5C14.5084 21.6716 13.8417 21.3382 13.5 20.5C13.1667 19.8333 12.8333 19.1667 12.5 18.5Z" fill="#767883"></path></g><defs><clipPath id="clip0_10_1842"><rect width="24" height="24" fill="white"></rect></clipPath></defs></svg>