<svg xmlns="http://www.w3.org/2000/svg" width="24" height="24" viewBox="0 0 24 24" fill="none"><rect width="24" height="24" fill="white"></rect><g clip-path="url(#clip0_10_1842)"><path fill-rule="evenodd" clip-rule="evenodd" d="M1.5 5.5C1.5 5.16667 1.5 4.83333 1.5 4.5C7.83333 4.5 14.1667 4.5 20.5 4.5C20.5 4.83333 20.5 5.16667 20.5 5.5C18.744 6.55213 18.0773 8.21879 18.5 10.5C17.6981 9.04839 17.1981 7.38172 17 5.5C16.9633 7.97395 16.13 9.97395 14.5 11.5C14.5 9.5 14.5 7.5 14.5 5.5C12.8333 5.5 11.1667 5.5 9.5 5.5C9.5 7.83333 9.5 10.1667 9.5 12.5C10.5 12.5 11.5 12.5 12.5 12.5C12.5 12.8333 12.5 13.1667 12.5 13.5C10.8333 13.5 9.16667 13.5 7.5 13.5C7.5 10.8333 7.5 8.16667 7.5 5.5C6.16667 5.5 4.83333 5.5 3.5 5.5C2.83333 5.5 2.16667 5.5 1.5 5.5Z" fill="#93908B"></path><path opacity="0.875" fill-rule="evenodd" clip-rule="evenodd" d="M1.5 5.5C2.16667 5.5 2.83333 5.5 3.5 5.5C3.20772 8.37612 3.20772 11.0428 3.5 13.5C3.16667 14.1667 2.83333 14.8333 2.5 15.5C2.5 16.1667 2.5 16.8333 2.5 17.5C2.16667 17.5 1.83333 17.5 1.5 17.5C1.5 13.5 1.5 9.5 1.5 5.5Z" fill="#8B8881"></path><path fill-rule="evenodd" clip-rule="evenodd" d="M3.5 5.5C4.83333 5.5 6.16667 5.5 7.5 5.5C7.5 8.16667 7.5 10.8333 7.5 13.5C6.25025 13.4227 5.41691 12.756 5 11.5C4.72158 12.4158 4.22158 13.0825 3.5 13.5C3.20772 11.0428 3.20772 8.37612 3.5 5.5Z" fill="#AEACA9"></path><path fill-rule="evenodd" clip-rule="evenodd" d="M20.5 4.5C21.1667 4.5 21.8333 4.5 22.5 4.5C22.5 8.83333 22.5 13.1667 22.5 17.5C22.1667 17.5 21.8333 17.5 21.5 17.5C20.8166 15.8235 19.4832 15.1568 17.5 15.5C16.3398 13.7973 17.0065 13.1307 19.5 13.5C21.7957 13.1959 22.129 12.1959 20.5 10.5C20.5 8.83333 20.5 7.16667 20.5 5.5C20.5 5.16667 20.5 4.83333 20.5 4.5Z" fill="#8D8882"></path><path fill-rule="evenodd" clip-rule="evenodd" d="M14.5 11.5C13.5084 11.3284 12.8417 11.6618 12.5 12.5C11.5 12.5 10.5 12.5 9.5 12.5C9.5 10.1667 9.5 7.83333 9.5 5.5C11.1667 5.5 12.8333 5.5 14.5 5.5C14.5 7.5 14.5 9.5 14.5 11.5Z" fill="#B0AEAB"></path><path fill-rule="evenodd" clip-rule="evenodd" d="M20.5 5.5C20.5 7.16667 20.5 8.83333 20.5 10.5C19.8333 10.5 19.1667 10.5 18.5 10.5C18.0773 8.21879 18.744 6.55213 20.5 5.5Z" fill="#C1BFBC"></path><path fill-rule="evenodd" clip-rule="evenodd" d="M18.5 10.5C19.1667 10.5 19.8333 10.5 20.5 10.5C22.129 12.1959 21.7957 13.1959 19.5 13.5C17.2743 12.2436 14.941 12.2436 12.5 13.5C12.5 13.1667 12.5 12.8333 12.5 12.5C12.8417 11.6618 13.5084 11.3284 14.5 11.5C16.13 9.97395 16.9633 7.97395 17 5.5C17.1981 7.38172 17.6981 9.04839 18.5 10.5Z" fill="#A8A7A5"></path><path opacity="0.908" fill-rule="evenodd" clip-rule="evenodd" d="M7.5 13.5C9.16667 13.5 10.8333 13.5 12.5 13.5C14.941 12.2436 17.2743 12.2436 19.5 13.5C17.0065 13.1307 16.3398 13.7973 17.5 15.5C12.5 15.5 7.5 15.5 2.5 15.5C2.83333 14.8333 3.16667 14.1667 3.5 13.5C4.22158 13.0825 4.72158 12.4158 5 11.5C5.41691 12.756 6.25025 13.4227 7.5 13.5Z" fill="#8E8C88"></path></g><defs><clipPath id="clip0_10_1842"><rect width="22" height="13" fill="white" transform="translate(2 5)"></rect></clipPath></defs></svg>