<svg xmlns="http://www.w3.org/2000/svg" width="24" height="24" viewBox="0 0 24 24" fill="none"><rect width="24" height="24" fill="white"></rect><g clip-path="url(#clip0_10_1842)"><path opacity="0.873" fill-rule="evenodd" clip-rule="evenodd" d="M3.5 -0.5C9.5 -0.5 15.5 -0.5 21.5 -0.5C21.5 0.166667 21.5 0.833333 21.5 1.5C21.1667 1.5 20.8333 1.5 20.5 1.5C19.8333 0.166667 19.1667 0.166667 18.5 1.5C17.5 1.5 16.5 1.5 15.5 1.5C11.5 1.5 7.5 1.5 3.5 1.5C3.5 0.833333 3.5 0.166667 3.5 -0.5Z" fill="#7E69B8"></path><path fill-rule="evenodd" clip-rule="evenodd" d="M3.5 1.5C7.5 1.5 11.5 1.5 15.5 1.5C15.5 1.83333 15.5 2.16667 15.5 2.5C14.1667 2.5 12.8333 2.5 11.5 2.5C11.1667 2.5 10.8333 2.5 10.5 2.5C8.4727 2.33788 6.4727 2.50454 4.5 3C5.25244 3.67076 5.58577 4.5041 5.5 5.5C4.83333 5.5 4.16667 5.5 3.5 5.5C3.5 4.16667 3.5 2.83333 3.5 1.5Z" fill="#CBC5E2"></path><path fill-rule="evenodd" clip-rule="evenodd" d="M10.5 2.5C10.6716 3.49162 10.3382 4.15829 9.5 4.5C8.3774 3.24258 7.71073 3.57591 7.5 5.5C6.83333 5.5 6.16667 5.5 5.5 5.5C5.58577 4.5041 5.25244 3.67076 4.5 3C6.4727 2.50454 8.4727 2.33788 10.5 2.5Z" fill="#E4E5EC"></path><path opacity="0.906" fill-rule="evenodd" clip-rule="evenodd" d="M20.5 1.5C20.5 3.83333 20.5 6.16667 20.5 8.5C20.1667 8.5 19.8333 8.5 19.5 8.5C19.4431 7.39105 19.1098 6.39105 18.5 5.5C18.5 4.16667 18.5 2.83333 18.5 1.5C19.1667 0.166667 19.8333 0.166667 20.5 1.5Z" fill="#C1BADD"></path><path fill-rule="evenodd" clip-rule="evenodd" d="M15.5 1.5C16.5 1.5 17.5 1.5 18.5 1.5C18.5 2.83333 18.5 4.16667 18.5 5.5C17.8333 5.5 17.1667 5.5 16.5 5.5C15.596 4.79105 15.2627 3.79105 15.5 2.5C15.5 2.16667 15.5 1.83333 15.5 1.5Z" fill="#8673BC"></path><path fill-rule="evenodd" clip-rule="evenodd" d="M11.5 2.5C12.8333 2.5 14.1667 2.5 15.5 2.5C15.2627 3.79105 15.596 4.79105 16.5 5.5C16.5 5.83333 16.5 6.16667 16.5 6.5C15.8333 6.5 15.5 6.83333 15.5 7.5C15.1667 7.5 14.8333 7.5 14.5 7.5C13.4019 6.60305 13.4019 5.76971 14.5 5C12.8807 4.76445 11.8807 3.93112 11.5 2.5Z" fill="#CCCAD3"></path><path opacity="0.749" fill-rule="evenodd" clip-rule="evenodd" d="M3.5 5.5C4.16667 5.5 4.83333 5.5 5.5 5.5C5.5 5.83333 5.5 6.16667 5.5 6.5C4.16667 8.16667 4.16667 9.83333 5.5 11.5C6.09065 12.1515 6.75731 12.8182 7.5 13.5C7.37642 14.1067 7.04309 14.44 6.5 14.5C5.79105 13.596 4.79105 13.2627 3.5 13.5C3.5 10.8333 3.5 8.16667 3.5 5.5Z" fill="#CFD8E5"></path><path fill-rule="evenodd" clip-rule="evenodd" d="M9.5 4.5C9.5 5.5 9.5 6.5 9.5 7.5C8.16667 7.5 7.5 6.83333 7.5 5.5C7.71073 3.57591 8.3774 3.24258 9.5 4.5Z" fill="#DDDCE7"></path><path fill-rule="evenodd" clip-rule="evenodd" d="M10.5 2.5C10.8333 2.5 11.1667 2.5 11.5 2.5C11.8807 3.93112 12.8807 4.76445 14.5 5C13.4019 5.76971 13.4019 6.60305 14.5 7.5C13.0412 7.43255 11.7079 7.76589 10.5 8.5C10.5 7.83333 10.1667 7.5 9.5 7.5C9.5 6.5 9.5 5.5 9.5 4.5C10.3382 4.15829 10.6716 3.49162 10.5 2.5Z" fill="#B6AED6"></path><path fill-rule="evenodd" clip-rule="evenodd" d="M16.5 5.5C17.1667 5.5 17.8333 5.5 18.5 5.5C19.1098 6.39105 19.4431 7.39105 19.5 8.5C19.5 9.16667 19.1667 9.5 18.5 9.5C17.4489 8.77765 16.7822 7.77765 16.5 6.5C16.5 6.16667 16.5 5.83333 16.5 5.5Z" fill="#B6AA84"></path><path fill-rule="evenodd" clip-rule="evenodd" d="M5.5 5.5C6.16667 5.5 6.83333 5.5 7.5 5.5C7.5 6.83333 8.16667 7.5 9.5 7.5C6.92173 9.93965 5.58839 9.60632 5.5 6.5C5.5 6.16667 5.5 5.83333 5.5 5.5Z" fill="#C4BDDF"></path><path fill-rule="evenodd" clip-rule="evenodd" d="M5.5 6.5C5.58839 9.60632 6.92173 9.93965 9.5 7.5C10.1667 7.5 10.5 7.83333 10.5 8.5C10.1788 10.0481 9.17876 10.7148 7.5 10.5C6.50838 10.3284 5.84171 10.6618 5.5 11.5C4.16667 9.83333 4.16667 8.16667 5.5 6.5Z" fill="#E5E6ED"></path><path fill-rule="evenodd" clip-rule="evenodd" d="M14.5 7.5C14.5 8.83333 14.5 10.1667 14.5 11.5C12.5 11.5 10.5 11.5 8.5 11.5C7.83333 11.5 7.5 11.1667 7.5 10.5C9.17876 10.7148 10.1788 10.0481 10.5 8.5C11.7079 7.76589 13.0412 7.43255 14.5 7.5Z" fill="#DADDE4"></path><path fill-rule="evenodd" clip-rule="evenodd" d="M16.5 6.5C16.7822 7.77765 17.4489 8.77765 18.5 9.5C18.5 9.83333 18.5 10.1667 18.5 10.5C17.5 10.5 16.5 10.5 15.5 10.5C15.5 9.5 15.5 8.5 15.5 7.5C15.5 6.83333 15.8333 6.5 16.5 6.5Z" fill="#AF9F5D"></path><path opacity="0.937" fill-rule="evenodd" clip-rule="evenodd" d="M19.5 8.5C19.8333 8.5 20.1667 8.5 20.5 8.5C20.5 10.5 20.5 12.5 20.5 14.5C19.8333 13.1667 19.1667 11.8333 18.5 10.5C18.5 10.1667 18.5 9.83333 18.5 9.5C19.1667 9.5 19.5 9.16667 19.5 8.5Z" fill="#E3E0D3"></path><path fill-rule="evenodd" clip-rule="evenodd" d="M14.5 7.5C14.8333 7.5 15.1667 7.5 15.5 7.5C15.5 8.5 15.5 9.5 15.5 10.5C16.5 10.5 17.5 10.5 18.5 10.5C18.5 10.8333 18.5 11.1667 18.5 11.5C17.8333 11.5 17.1667 11.5 16.5 11.5C15.8333 11.5 15.1667 11.5 14.5 11.5C14.5 10.1667 14.5 8.83333 14.5 7.5Z" fill="#CBCABD"></path><path fill-rule="evenodd" clip-rule="evenodd" d="M7.5 10.5C7.5 11.1667 7.83333 11.5 8.5 11.5C8.5 12.1667 8.5 12.8333 8.5 13.5C8.48944 15.0174 7.82277 16.1841 6.5 17C7.09442 17.4643 7.76109 17.631 8.5 17.5C8.5 17.8333 8.5 18.1667 8.5 18.5C7.83333 18.5 7.16667 18.5 6.5 18.5C6.16667 18.5 5.83333 18.5 5.5 18.5C5.43255 17.0413 5.76589 15.7079 6.5 14.5C7.04309 14.44 7.37642 14.1067 7.5 13.5C6.75731 12.8182 6.09065 12.1515 5.5 11.5C5.84171 10.6618 6.50838 10.3284 7.5 10.5Z" fill="#42A4C3"></path><path fill-rule="evenodd" clip-rule="evenodd" d="M8.5 11.5C10.5 11.5 12.5 11.5 14.5 11.5C15.1667 11.5 15.8333 11.5 16.5 11.5C14.5615 13.1628 12.2282 13.8294 9.5 13.5C9.16667 13.5 8.83333 13.5 8.5 13.5C8.5 12.8333 8.5 12.1667 8.5 11.5Z" fill="#B0D3DF"></path><path fill-rule="evenodd" clip-rule="evenodd" d="M16.5 11.5C17.1667 11.5 17.8333 11.5 18.5 11.5C18.5 12.5 18.5 13.5 18.5 14.5C16.8333 14.5 15.1667 14.5 13.5 14.5C12.1667 14.5 10.8333 14.5 9.5 14.5C9.5 14.1667 9.5 13.8333 9.5 13.5C12.2282 13.8294 14.5615 13.1628 16.5 11.5Z" fill="#CACFD6"></path><path fill-rule="evenodd" clip-rule="evenodd" d="M18.5 10.5C19.1667 11.8333 19.8333 13.1667 20.5 14.5C20.5 16.5 20.5 18.5 20.5 20.5C20.1667 20.5 19.8333 20.5 19.5 20.5C18.8902 19.609 18.5569 18.609 18.5 17.5C18.5 16.8333 18.5 16.1667 18.5 15.5C18.5 15.1667 18.5 14.8333 18.5 14.5C18.5 13.5 18.5 12.5 18.5 11.5C18.5 11.1667 18.5 10.8333 18.5 10.5Z" fill="#E2E4E9"></path><path fill-rule="evenodd" clip-rule="evenodd" d="M13.5 14.5C15.1667 14.5 16.8333 14.5 18.5 14.5C18.5 14.8333 18.5 15.1667 18.5 15.5C17.1266 15.3433 15.7932 15.51 14.5 16C15.7383 16.69 15.7383 17.19 14.5 17.5C14.1667 17.5 13.8333 17.5 13.5 17.5C13.5 17.1667 13.5 16.8333 13.5 16.5C13.5 15.8333 13.5 15.1667 13.5 14.5Z" fill="#CDCCDB"></path><path fill-rule="evenodd" clip-rule="evenodd" d="M3.5 13.5C4.79105 13.2627 5.79105 13.596 6.5 14.5C5.76589 15.7079 5.43255 17.0413 5.5 18.5C4.83333 18.5 4.16667 18.5 3.5 18.5C3.5 16.8333 3.5 15.1667 3.5 13.5Z" fill="#DADFE9"></path><path fill-rule="evenodd" clip-rule="evenodd" d="M8.5 13.5C8.83333 13.5 9.16667 13.5 9.5 13.5C9.5 13.8333 9.5 14.1667 9.5 14.5C9.5 15.1667 9.5 15.8333 9.5 16.5C9.5 17.1667 9.16667 17.5 8.5 17.5C7.76109 17.631 7.09442 17.4643 6.5 17C7.82277 16.1841 8.48944 15.0174 8.5 13.5Z" fill="#DAE0E9"></path><path fill-rule="evenodd" clip-rule="evenodd" d="M9.5 14.5C10.8333 14.5 12.1667 14.5 13.5 14.5C13.5 15.1667 13.5 15.8333 13.5 16.5C12.1667 16.5 10.8333 16.5 9.5 16.5C9.5 15.8333 9.5 15.1667 9.5 14.5Z" fill="#D8D6E5"></path><path fill-rule="evenodd" clip-rule="evenodd" d="M9.5 16.5C10.8333 16.5 12.1667 16.5 13.5 16.5C13.5 16.8333 13.5 17.1667 13.5 17.5C12.7911 18.404 11.791 18.7373 10.5 18.5C9.83333 18.5 9.16667 18.5 8.5 18.5C8.5 18.1667 8.5 17.8333 8.5 17.5C9.16667 17.5 9.5 17.1667 9.5 16.5Z" fill="#CECFDD"></path><path fill-rule="evenodd" clip-rule="evenodd" d="M18.5 15.5C18.5 16.1667 18.5 16.8333 18.5 17.5C17.6236 17.3691 16.9569 17.7025 16.5 18.5C17.1272 19.4168 17.4606 20.4168 17.5 21.5C16.8333 21.5 16.5 21.8333 16.5 22.5C15.7611 22.631 15.0944 22.4643 14.5 22C15.7736 21.0228 15.7736 20.1894 14.5 19.5C14.5 18.8333 14.5 18.1667 14.5 17.5C15.7383 17.19 15.7383 16.69 14.5 16C15.7932 15.51 17.1266 15.3433 18.5 15.5Z" fill="#CDCDD0"></path><path fill-rule="evenodd" clip-rule="evenodd" d="M18.5 17.5C18.5569 18.609 18.8902 19.609 19.5 20.5C18.8333 20.8333 18.1667 21.1667 17.5 21.5C17.4606 20.4168 17.1272 19.4168 16.5 18.5C16.9569 17.7025 17.6236 17.3691 18.5 17.5Z" fill="#B7A48D"></path><path fill-rule="evenodd" clip-rule="evenodd" d="M3.5 18.5C4.16667 18.5 4.83333 18.5 5.5 18.5C5.83333 18.5 6.16667 18.5 6.5 18.5C7.23411 19.7079 7.56745 21.0413 7.5 22.5C6.16667 22.5 4.83333 22.5 3.5 22.5C3.5 21.1667 3.5 19.8333 3.5 18.5Z" fill="#E2E3E9"></path><path fill-rule="evenodd" clip-rule="evenodd" d="M6.5 18.5C7.16667 18.5 7.83333 18.5 8.5 18.5C9.16667 18.5 9.83333 18.5 10.5 18.5C10.5 19.1667 10.5 19.8333 10.5 20.5C9.16667 20.5 8.5 21.1667 8.5 22.5C8.16667 22.5 7.83333 22.5 7.5 22.5C7.56745 21.0413 7.23411 19.7079 6.5 18.5Z" fill="#DADEE8"></path><path fill-rule="evenodd" clip-rule="evenodd" d="M13.5 17.5C13.8333 17.5 14.1667 17.5 14.5 17.5C14.5 18.1667 14.5 18.8333 14.5 19.5C13.8999 20.9002 12.8999 21.9002 11.5 22.5C13.031 21.0755 12.6977 20.4088 10.5 20.5C10.5 19.8333 10.5 19.1667 10.5 18.5C11.791 18.7373 12.7911 18.404 13.5 17.5Z" fill="#DFE0E4"></path><path fill-rule="evenodd" clip-rule="evenodd" d="M10.5 20.5C12.6977 20.4088 13.031 21.0755 11.5 22.5C10.5 22.5 9.5 22.5 8.5 22.5C8.5 21.1667 9.16667 20.5 10.5 20.5Z" fill="#CFCBE1"></path><path fill-rule="evenodd" clip-rule="evenodd" d="M19.5 20.5C19.8333 20.5 20.1667 20.5 20.5 20.5C20.5 21.1667 20.8333 21.5 21.5 21.5C21.5 21.8333 21.5 22.1667 21.5 22.5C21.1667 22.5 20.8333 22.5 20.5 22.5C19.1667 22.5 17.8333 22.5 16.5 22.5C16.5 21.8333 16.8333 21.5 17.5 21.5C18.1667 21.1667 18.8333 20.8333 19.5 20.5Z" fill="#DADBDD"></path><path opacity="0.996" fill-rule="evenodd" clip-rule="evenodd" d="M14.5 19.5C15.7736 20.1894 15.7736 21.0228 14.5 22C15.0944 22.4643 15.7611 22.631 16.5 22.5C17.8333 22.5 19.1667 22.5 20.5 22.5C20.5 22.8333 20.5 23.1667 20.5 23.5C14.8333 23.5 9.16667 23.5 3.5 23.5C3.5 23.1667 3.5 22.8333 3.5 22.5C4.83333 22.5 6.16667 22.5 7.5 22.5C7.83333 22.5 8.16667 22.5 8.5 22.5C9.5 22.5 10.5 22.5 11.5 22.5C12.8999 21.9002 13.8999 20.9002 14.5 19.5Z" fill="#BFBEBD"></path></g><defs><clipPath id="clip0_10_1842"><rect width="18" height="24" fill="white" transform="translate(4)"></rect></clipPath></defs></svg>