<svg xmlns="http://www.w3.org/2000/svg" width="24" height="24" viewBox="0 0 24 24" fill="none"><g clip-path="url(#clip0_10_1842)"><rect width="24" height="24" fill="white"></rect><path opacity="0.396" fill-rule="evenodd" clip-rule="evenodd" d="M11.5 1.19999C14.8774 0.767848 17.8774 1.43451 20.5 3.19999C19.8333 3.19999 19.1667 3.19999 18.5 3.19999C15.9327 2.97851 13.5994 2.31184 11.5 1.19999Z" fill="#B4B2B2"></path><path fill-rule="evenodd" clip-rule="evenodd" d="M10.5 1.19999C10.5 1.53332 10.5 1.86666 10.5 2.19999C7.5404 2.73203 7.20706 3.3987 9.5 4.19999C9.5 4.53332 9.5 4.86666 9.5 5.19999C8.83333 5.19999 8.5 5.53332 8.5 6.19999C6.55437 5.66527 5.55437 4.33194 5.5 2.19999C6.91866 1.24884 8.58533 0.91551 10.5 1.19999Z" fill="#BEBDBB"></path><path fill-rule="evenodd" clip-rule="evenodd" d="M10.5 2.2C10.8417 3.03825 11.5084 3.37158 12.5 3.2C11.791 4.10397 10.791 4.43731 9.5 4.2C7.20706 3.39871 7.5404 2.73204 10.5 2.2Z" fill="#C9C7C6"></path><path fill-rule="evenodd" clip-rule="evenodd" d="M10.5 1.2C10.8333 1.2 11.1667 1.2 11.5 1.2C13.5994 2.31185 15.9327 2.97852 18.5 3.2C19.1098 4.09105 19.4431 5.09105 19.5 6.2C18.5 5.53333 17.5 4.86667 16.5 4.2C15.1667 3.86667 13.8333 3.53333 12.5 3.2C11.5084 3.37158 10.8417 3.03825 10.5 2.2C10.5 1.86667 10.5 1.53333 10.5 1.2Z" fill="#CCCBC9"></path><path fill-rule="evenodd" clip-rule="evenodd" d="M12.5 3.2C13.8333 3.53333 15.1667 3.86667 16.5 4.2C16.5 4.86667 16.1667 5.2 15.5 5.2C13.5 5.2 11.5 5.2 9.5 5.2C9.5 4.86667 9.5 4.53333 9.5 4.2C10.791 4.43731 11.791 4.10397 12.5 3.2Z" fill="#C1C0BE"></path><path fill-rule="evenodd" clip-rule="evenodd" d="M16.5 4.2C17.5 4.86667 18.5 5.53333 19.5 6.2C19.5 7.2 19.5 8.2 19.5 9.2C18.8333 8.53333 18.1667 7.86667 17.5 7.2C17.1667 7.2 16.8333 7.2 16.5 7.2C16.1667 6.53333 15.8333 5.86667 15.5 5.2C16.1667 5.2 16.5 4.86667 16.5 4.2Z" fill="#C8C7C5"></path><path opacity="0.997" fill-rule="evenodd" clip-rule="evenodd" d="M3.50001 3.2C3.50001 3.53333 3.50001 3.86667 3.50001 4.2C3.50001 5.86667 3.50001 7.53333 3.50001 9.2C2.83334 8.86667 2.16668 8.53333 1.50001 8.2C1.40207 6.14708 2.06874 4.48041 3.50001 3.2Z" fill="#9D9D99"></path><path fill-rule="evenodd" clip-rule="evenodd" d="M8.5 6.2C8.5 5.53333 8.83333 5.2 9.5 5.2C11.5 5.2 13.5 5.2 15.5 5.2C15.8333 5.86667 16.1667 6.53333 16.5 7.2C16.1667 7.2 15.8333 7.2 15.5 7.2C14.5 5.86667 13.5 5.86667 12.5 7.2C11.4324 6.26552 10.099 5.93219 8.5 6.2Z" fill="#B5B3B1"></path><path fill-rule="evenodd" clip-rule="evenodd" d="M5.5 2.2C5.55437 4.33195 6.55437 5.66528 8.5 6.2C8.5 6.86667 8.5 7.53333 8.5 8.2C7.83333 7.86667 7.16667 7.53333 6.5 7.2C5.27187 6.39354 4.27187 5.39354 3.5 4.2C3.5 3.86667 3.5 3.53333 3.5 3.2C3.84171 2.36175 4.50838 2.02842 5.5 2.2Z" fill="#B8B7B4"></path><path fill-rule="evenodd" clip-rule="evenodd" d="M18.5 3.2C19.1667 3.2 19.8333 3.2 20.5 3.2C21.3414 5.0792 21.6747 7.0792 21.5 9.2C20.8333 9.2 20.1667 9.2 19.5 9.2C19.5 8.2 19.5 7.2 19.5 6.2C19.4431 5.09105 19.1098 4.09105 18.5 3.2Z" fill="#C2C1C0"></path><path fill-rule="evenodd" clip-rule="evenodd" d="M3.5 4.2C4.27187 5.39354 5.27187 6.39354 6.5 7.2C5.76589 8.40792 5.43255 9.74125 5.5 11.2C5.16667 11.2 4.83333 11.2 4.5 11.2C4.67158 10.2084 4.33825 9.54171 3.5 9.2C3.5 7.53333 3.5 5.86667 3.5 4.2Z" fill="#AFAEAB"></path><path fill-rule="evenodd" clip-rule="evenodd" d="M8.5 6.2C10.099 5.93219 11.4324 6.26552 12.5 7.2C11.5084 7.02842 10.8417 7.36175 10.5 8.2C9.83333 8.2 9.5 8.53333 9.5 9.2C8.83333 9.2 8.5 8.86667 8.5 8.2C8.5 7.53333 8.5 6.86667 8.5 6.2Z" fill="#A2A19F"></path><path fill-rule="evenodd" clip-rule="evenodd" d="M15.5 7.19999C15.5 8.19999 15.5 9.19999 15.5 10.2C14.5269 12.6479 14.1936 15.3146 14.5 18.2C14.281 19.375 14.6143 20.375 15.5 21.2C16.7387 21.6424 17.7387 22.3091 18.5 23.2C16.7376 23.3427 15.0709 23.0094 13.5 22.2C12.3875 18.2065 12.3875 14.2065 13.5 10.2C13.1788 8.65185 12.1788 7.98518 10.5 8.19999C10.8417 7.36174 11.5084 7.02841 12.5 7.19999C13.5 5.86666 14.5 5.86666 15.5 7.19999Z" fill="#8A8986"></path><path fill-rule="evenodd" clip-rule="evenodd" d="M6.5 7.2C7.16667 7.53333 7.83333 7.86667 8.5 8.2C8.5 8.86667 8.83333 9.2 9.5 9.2C9.5 9.53333 9.5 9.86667 9.5 10.2C8.5041 10.2858 7.67076 9.95244 7 9.2C6.53566 9.79442 6.36899 10.4611 6.5 11.2C6.16667 11.2 5.83333 11.2 5.5 11.2C5.43255 9.74125 5.76589 8.40792 6.5 7.2Z" fill="#B6B5B3"></path><path opacity="0.827" fill-rule="evenodd" clip-rule="evenodd" d="M10.5 8.2C12.1788 7.98519 13.1788 8.65186 13.5 10.2C12.0379 9.22909 10.7046 9.56242 9.5 11.2C9.5 10.8667 9.5 10.5333 9.5 10.2C9.5 9.86667 9.5 9.53333 9.5 9.2C9.5 8.53333 9.83333 8.2 10.5 8.2Z" fill="#666462"></path><path fill-rule="evenodd" clip-rule="evenodd" d="M15.5 7.2C15.8333 7.2 16.1667 7.2 16.5 7.2C16.8333 7.2 17.1667 7.2 17.5 7.2C17.8432 9.18324 17.1765 10.5166 15.5 11.2C15.5 10.8667 15.5 10.5333 15.5 10.2C15.5 9.2 15.5 8.2 15.5 7.2Z" fill="#B2B1B0"></path><path opacity="0.936" fill-rule="evenodd" clip-rule="evenodd" d="M19.5 9.2C20.1667 9.2 20.8333 9.2 21.5 9.2C21.7845 11.1147 21.4511 12.7813 20.5 14.2C19.8333 14.2 19.1667 14.2 18.5 14.2C18.5 13.8667 18.5 13.5333 18.5 13.2C19.4345 12.1324 19.7678 10.799 19.5 9.2Z" fill="#B6B5B4"></path><path opacity="0.924" fill-rule="evenodd" clip-rule="evenodd" d="M1.5 8.2C2.16667 8.53333 2.83333 8.86667 3.5 9.2C4.33825 9.54171 4.67158 10.2084 4.5 11.2C3.66175 11.5417 3.32842 12.2084 3.5 13.2C3.5 15.8667 3.5 18.5333 3.5 21.2C2.55106 17.0435 1.88439 12.7102 1.5 8.2Z" fill="#83827E"></path><path fill-rule="evenodd" clip-rule="evenodd" d="M9.5 10.2C9.5 10.5333 9.5 10.8667 9.5 11.2C9.83333 12.5333 10.1667 13.8667 10.5 15.2C9.20895 15.4373 8.20895 15.104 7.5 14.2C6.89728 13.0652 6.56395 12.0652 6.5 11.2C6.36899 10.4611 6.53566 9.79442 7 9.2C7.67076 9.95244 8.5041 10.2858 9.5 10.2Z" fill="#C5C4C3"></path><path fill-rule="evenodd" clip-rule="evenodd" d="M17.5 7.2C18.1667 7.86667 18.8333 8.53333 19.5 9.2C19.7678 10.799 19.4345 12.1324 18.5 13.2C17.609 12.5902 16.609 12.2569 15.5 12.2C15.5 11.8667 15.5 11.5333 15.5 11.2C17.1765 10.5166 17.8432 9.18324 17.5 7.2Z" fill="#BFBEBC"></path><path fill-rule="evenodd" clip-rule="evenodd" d="M4.5 11.2C4.83333 11.2 5.16667 11.2 5.5 11.2C5.83333 11.2 6.16667 11.2 6.5 11.2C6.56395 12.0652 6.89728 13.0652 7.5 14.2C6.50838 14.0284 5.84171 14.3618 5.5 15.2C5.16667 15.2 4.83333 15.2 4.5 15.2C4.67158 14.2084 4.33825 13.5417 3.5 13.2C3.32842 12.2084 3.66175 11.5417 4.5 11.2Z" fill="#B2B1AF"></path><path fill-rule="evenodd" clip-rule="evenodd" d="M15.5 12.2C16.609 12.2569 17.609 12.5902 18.5 13.2C18.5 13.5333 18.5 13.8667 18.5 14.2C17.5 14.5333 16.8333 15.2 16.5 16.2C15.5655 15.1324 15.2322 13.799 15.5 12.2Z" fill="#B1B0AE"></path><path fill-rule="evenodd" clip-rule="evenodd" d="M15.5 10.2C15.5 10.5333 15.5 10.8667 15.5 11.2C15.5 11.5333 15.5 11.8667 15.5 12.2C15.2322 13.799 15.5655 15.1324 16.5 16.2C16.3284 17.1916 16.6618 17.8583 17.5 18.2C18.1098 19.091 18.4431 20.091 18.5 21.2C16.8595 20.553 15.5261 19.553 14.5 18.2C14.1936 15.3146 14.5269 12.6479 15.5 10.2Z" fill="#A5A4A2"></path><path opacity="0.998" fill-rule="evenodd" clip-rule="evenodd" d="M7.5 14.2C8.20895 15.104 9.20895 15.4373 10.5 15.2C10.5 16.8667 10.5 18.5333 10.5 20.2C10.1667 20.2 9.83333 20.2 9.5 20.2C8.19701 18.5577 6.86368 16.8911 5.5 15.2C5.84171 14.3618 6.50838 14.0284 7.5 14.2Z" fill="#B8B8B7"></path><path fill-rule="evenodd" clip-rule="evenodd" d="M4.50001 15.2C4.83334 15.2 5.16668 15.2 5.50001 15.2C6.86369 16.8911 8.19702 18.5577 9.50001 20.2C9.44002 20.7431 9.10668 21.0764 8.50001 21.2C7.71238 19.9299 6.71238 18.9299 5.50001 18.2C4.59604 17.491 4.2627 16.491 4.50001 15.2Z" fill="#AAA9A8"></path><path fill-rule="evenodd" clip-rule="evenodd" d="M18.5 14.2C19.1667 14.2 19.8333 14.2 20.5 14.2C20.5 15.2 20.5 16.2 20.5 17.2C19.609 17.8098 18.609 18.1431 17.5 18.2C16.6618 17.8583 16.3284 17.1916 16.5 16.2C16.8333 15.2 17.5 14.5333 18.5 14.2Z" fill="#B5B4B2"></path><path opacity="0.678" fill-rule="evenodd" clip-rule="evenodd" d="M20.5 17.2C20.5 18.5333 20.5 19.8667 20.5 21.2C19.8333 21.2 19.1667 21.2 18.5 21.2C18.4431 20.091 18.1098 19.091 17.5 18.2C18.609 18.1431 19.609 17.8098 20.5 17.2Z" fill="#ACACAB"></path><path fill-rule="evenodd" clip-rule="evenodd" d="M3.5 13.2C4.33825 13.5417 4.67158 14.2084 4.5 15.2C4.26269 16.491 4.59603 17.491 5.5 18.2C5.5 19.2 5.5 20.2 5.5 21.2C4.83333 21.2 4.16667 21.2 3.5 21.2C3.5 18.5333 3.5 15.8667 3.5 13.2Z" fill="#8B8A87"></path><path opacity="0.947" fill-rule="evenodd" clip-rule="evenodd" d="M14.5 18.2C15.5261 19.553 16.8595 20.553 18.5 21.2C19.1667 21.2 19.8333 21.2 20.5 21.2C20.1667 22.2 19.5 22.8667 18.5 23.2C17.7387 22.3091 16.7387 21.6424 15.5 21.2C14.6143 20.375 14.281 19.375 14.5 18.2Z" fill="#9A9998"></path><path opacity="0.039" fill-rule="evenodd" clip-rule="evenodd" d="M5.5 18.2C6.71237 18.9299 7.71237 19.9299 8.5 21.2C9.10667 21.0764 9.44001 20.7431 9.5 20.2C9.83333 20.2 10.1667 20.2 10.5 20.2C10.5 21.5333 9.83333 22.2 8.5 22.2C7.39105 22.1431 6.39105 21.8098 5.5 21.2C5.5 20.2 5.5 19.2 5.5 18.2Z" fill="#9C9C9B"></path><path opacity="0.294" fill-rule="evenodd" clip-rule="evenodd" d="M3.5 21.2C4.16667 21.2 4.83333 21.2 5.5 21.2C6.39105 21.8098 7.39105 22.1431 8.5 22.2C6.54526 23.6302 4.87859 23.2969 3.5 21.2Z" fill="#848281"></path></g><defs><clipPath id="clip0_10_1842"><rect width="24" height="24" fill="white"></rect></clipPath></defs></svg>