<svg xmlns="http://www.w3.org/2000/svg" width="26" height="26" viewBox="0 0 26 26" fill="none"><rect width="26" height="26" fill="white"></rect><path d="M15.1591 17.5814L13.0426 16.2343C12.8793 16.1304 12.6738 16.119 12.5001 16.2042C12.3264 16.2895 12.2094 16.4591 12.1914 16.652C12.1347 17.259 11.8661 17.8311 11.4349 18.263C10.9398 18.759 10.2814 19.0322 9.58107 19.0322C8.88082 19.0322 8.22242 18.759 7.72726 18.263C6.70492 17.2389 6.70492 15.5725 7.72726 14.5484C8.14824 14.1267 8.68237 13.867 9.27198 13.7973C9.46192 13.7749 9.627 13.6562 9.70893 13.4832C9.79086 13.3101 9.77815 13.1071 9.6753 12.9456L8.33417 10.8405C8.19798 10.6267 7.93467 10.5322 7.69385 10.6107C6.77737 10.9094 5.96489 11.4093 5.27901 12.0964C2.907 14.4725 2.907 18.3388 5.27901 20.715C6.42813 21.8661 7.95597 22.5 9.58111 22.5C11.2062 22.5 12.734 21.866 13.8832 20.715C14.58 20.017 15.1016 19.1527 15.3917 18.2157C15.4659 17.9759 15.3706 17.7161 15.1591 17.5814Z" fill="#CFCFCF"></path><path d="M9.80409 22.5C11.3671 22.5 12.8366 21.8513 13.9418 20.6735C14.6119 19.9594 15.1136 19.075 15.3927 18.1162C15.464 17.8709 15.3724 17.605 15.1689 17.4672L13.1333 16.0888C12.9763 15.9825 12.7786 15.9708 12.6115 16.0581C12.4445 16.1453 12.332 16.3189 12.3147 16.5163C12.2601 17.1373 12.0018 17.7227 11.5871 18.1646C11.1108 18.6722 10.4776 18.9517 9.80406 18.9517C9.13078 18.9517 8.49775 18.6723 8.02154 18.1651L5.66667 20.6739C6.77188 21.8514 8.2412 22.5 9.80409 22.5Z" fill="#D7D7D7"></path><path d="M19.5208 15.6225C19.1821 14.4864 18.4635 13.1606 17.4975 11.8895C17.3051 11.6363 14.3471 8.68181 14.0937 8.48968C12.8249 7.528 11.5025 6.81314 10.3699 6.47682C8.67769 5.97431 7.79047 6.40079 7.34418 6.84707C6.57003 7.62123 6.55179 9.00731 7.29277 10.75C7.94358 12.2806 9.14137 13.983 10.5791 15.4207C12.0168 16.8585 13.7191 18.0563 15.2497 18.7072C16.1012 19.0692 16.8674 19.25 17.5188 19.25C18.2008 19.25 18.757 19.0517 19.153 18.6557C19.6001 18.2086 20.0269 17.3195 19.5208 15.6225Z" fill="#4699FA"></path><path d="M17.6211 11.3412C17.5305 11.2057 16.7916 10.3502 16.0429 9.5L11.0833 15.1368C12.4419 16.681 14.0504 17.9676 15.4966 18.6667C16.3013 19.0557 17.0255 19.25 17.6412 19.25C18.2858 19.25 18.8115 19.037 19.1858 18.6115C19.6083 18.131 20.0117 17.1756 19.5334 15.3522C19.2132 14.1315 18.5341 12.707 17.6211 11.3412Z" fill="#3C87F5"></path><path d="M21.6252 4.28502C20.7555 3.43459 19.6038 2.97829 18.3815 3.00079C17.158 3.02312 16.0218 3.52175 15.182 4.4048C14.4532 5.17113 14.0109 6.17566 13.9367 7.23338C13.8467 8.51705 13.3189 9.70483 12.4506 10.5779L12.3295 10.6996C12.1124 10.9179 12.1124 11.2718 12.3295 11.49L14.4971 13.6695C14.6014 13.7745 14.7429 13.8334 14.8905 13.8333C15.038 13.8333 15.1795 13.7743 15.2838 13.6694L15.3107 13.6424C16.2112 12.7369 17.4323 12.1925 18.7489 12.1093C19.8515 12.0397 20.8892 11.5684 21.6711 10.7823C22.5365 9.91208 23.0084 8.75512 22.9999 7.52444C22.9914 6.29403 22.5032 5.14359 21.6252 4.28502Z" fill="#F9D857"></path><path d="M21.647 4.08333L13.25 12.5758L14.3268 13.6652C14.4332 13.7729 14.5776 13.8334 14.7281 13.8333C14.8785 13.8333 15.0229 13.7728 15.1293 13.6651L15.1567 13.6373C16.0752 12.708 17.3207 12.1493 18.6638 12.0639C19.7884 11.9925 20.847 11.5088 21.6445 10.7019C22.5272 9.80885 23.0085 8.62144 22.9999 7.35837C22.9914 6.11905 22.5113 4.95898 21.647 4.08333Z" fill="#FFCD00"></path></svg>