<svg xmlns="http://www.w3.org/2000/svg" width="24" height="24" viewBox="0 0 24 24" fill="none"><g clip-path="url(#clip0_10_1842)"><rect width="24" height="24" fill="white"></rect><g clip-path="url(#clip1_10_1842)"><path opacity="0.125" fill-rule="evenodd" clip-rule="evenodd" d="M16.5 1.5C18.0269 1.42702 19.0269 2.09368 19.5 3.5C18.8333 3.5 18.1667 3.5 17.5 3.5C16.6618 3.15829 16.3284 2.49162 16.5 1.5Z" fill="#9AA2BC"></path><path fill-rule="evenodd" clip-rule="evenodd" d="M6.5 0.5C6.83333 0.5 7.16667 0.5 7.5 0.5C7.5 0.833333 7.5 1.16667 7.5 1.5C7.5 1.83333 7.5 2.16667 7.5 2.5C6.50838 2.32842 5.84171 2.66175 5.5 3.5C4.83333 3.5 4.5 3.16667 4.5 2.5C5.16667 1.83333 5.83333 1.16667 6.5 0.5Z" fill="#B6CBE1"></path><path opacity="0.592" fill-rule="evenodd" clip-rule="evenodd" d="M7.5 1.5C8.83333 1.5 9.5 2.16667 9.5 3.5C8.83333 3.5 8.16667 3.5 7.5 3.5C7.5 3.16667 7.5 2.83333 7.5 2.5C7.5 2.16667 7.5 1.83333 7.5 1.5Z" fill="#A8B5CD"></path><path fill-rule="evenodd" clip-rule="evenodd" d="M16.5 1.5C16.3284 2.49162 16.6618 3.15829 17.5 3.5C17.5 4.16667 17.5 4.83333 17.5 5.5C17.5 6.16667 17.5 6.83333 17.5 7.5C17.1667 7.5 16.8333 7.5 16.5 7.5C16.5 7.16667 16.5 6.83333 16.5 6.5C16.1667 5.83333 15.8333 5.16667 15.5 4.5C15.1667 3.83333 14.8333 3.16667 14.5 2.5C14.8417 1.66175 15.5084 1.32842 16.5 1.5Z" fill="#A8C6DE"></path><path opacity="0.867" fill-rule="evenodd" clip-rule="evenodd" d="M4.5 2.5C4.5 3.16667 4.83333 3.5 5.5 3.5C5.15829 4.33825 4.49162 4.67158 3.5 4.5C3.32842 3.50838 3.66175 2.84171 4.5 2.5Z" fill="#ADACCA"></path><path fill-rule="evenodd" clip-rule="evenodd" d="M7.5 2.5C7.5 2.83333 7.5 3.16667 7.5 3.5C7.5 3.83333 7.5 4.16667 7.5 4.5C6.83333 4.5 6.5 4.83333 6.5 5.5C6.16667 5.5 5.83333 5.5 5.5 5.5C5.16667 5.5 4.83333 5.5 4.5 5.5C3.83333 5.5 3.16667 5.5 2.5 5.5C2.5 4.83333 2.83333 4.5 3.5 4.5C4.49162 4.67158 5.15829 4.33825 5.5 3.5C5.84171 2.66175 6.50838 2.32842 7.5 2.5Z" fill="#9ECCE0"></path><path opacity="0.824" fill-rule="evenodd" clip-rule="evenodd" d="M7.5 4.5C7.5 4.16667 7.5 3.83333 7.5 3.5C8.16667 3.5 8.83333 3.5 9.5 3.5C10.1667 3.5 10.5 3.83333 10.5 4.5C10.8333 5.16667 11.1667 5.83333 11.5 6.5C10.8333 6.5 10.1667 6.5 9.5 6.5C9.5 5.16667 8.83333 4.5 7.5 4.5Z" fill="#DAD1E4"></path><path opacity="0.708" fill-rule="evenodd" clip-rule="evenodd" d="M14.5 2.5C14.8333 3.16667 15.1667 3.83333 15.5 4.5C14.5084 4.32842 13.8417 4.66175 13.5 5.5C12.8333 5.5 12.5 5.16667 12.5 4.5C12.8333 3.5 13.5 2.83333 14.5 2.5Z" fill="#D7CEE2"></path><path fill-rule="evenodd" clip-rule="evenodd" d="M6.5 5.5C6.5 4.83333 6.83333 4.5 7.5 4.5C8.83333 4.5 9.5 5.16667 9.5 6.5C8.39105 6.44312 7.39105 6.10978 6.5 5.5Z" fill="#ADC5DE"></path><path fill-rule="evenodd" clip-rule="evenodd" d="M13.5 5.5C13.8417 4.66175 14.5084 4.32842 15.5 4.5C15.8333 5.16667 16.1667 5.83333 16.5 6.5C15.391 6.44312 14.391 6.10978 13.5 5.5Z" fill="#A0B4CF"></path><path fill-rule="evenodd" clip-rule="evenodd" d="M17.5 3.5C18.1667 3.5 18.8333 3.5 19.5 3.5C19.8333 4.16667 20.1667 4.83333 20.5 5.5C20.1667 5.5 19.8333 5.5 19.5 5.5C18.8333 5.5 18.1667 5.5 17.5 5.5C17.5 4.83333 17.5 4.16667 17.5 3.5Z" fill="#9AB9D2"></path><path fill-rule="evenodd" clip-rule="evenodd" d="M10.5 4.5C11.1667 4.5 11.8333 4.5 12.5 4.5C12.5 5.16667 12.8333 5.5 13.5 5.5C14.391 6.10978 15.391 6.44312 16.5 6.5C16.5 6.83333 16.5 7.16667 16.5 7.5C15.8333 7.5 15.1667 7.5 14.5 7.5C14.1667 7.5 13.8333 7.5 13.5 7.5C13.1583 6.66175 12.4916 6.32842 11.5 6.5C11.1667 5.83333 10.8333 5.16667 10.5 4.5Z" fill="#CCCBE1"></path><path fill-rule="evenodd" clip-rule="evenodd" d="M2.5 5.5C3.16667 5.5 3.83333 5.5 4.5 5.5C4.5 6.16667 4.5 6.83333 4.5 7.5C4.16667 7.5 3.83333 7.5 3.5 7.5C2.83333 7.5 2.5 7.16667 2.5 6.5C2.5 6.16667 2.5 5.83333 2.5 5.5Z" fill="#AFB3CF"></path><path fill-rule="evenodd" clip-rule="evenodd" d="M4.5 5.5C4.83333 5.5 5.16667 5.5 5.5 5.5C5.83333 6.16667 6.16667 6.83333 6.5 7.5C5.83333 7.83333 5.16667 8.16667 4.5 8.5C4.5 8.16667 4.5 7.83333 4.5 7.5C4.5 6.83333 4.5 6.16667 4.5 5.5Z" fill="#A7D1E3"></path><path fill-rule="evenodd" clip-rule="evenodd" d="M5.5 5.5C5.83333 5.5 6.16667 5.5 6.5 5.5C7.39105 6.10978 8.39105 6.44312 9.5 6.5C8.83333 7.16667 8.16667 7.83333 7.5 8.5C7.16667 8.5 6.83333 8.5 6.5 8.5C6.5 8.16667 6.5 7.83333 6.5 7.5C6.16667 6.83333 5.83333 6.16667 5.5 5.5Z" fill="#CEC8DF"></path><path fill-rule="evenodd" clip-rule="evenodd" d="M11.5 6.5C12.4916 6.32842 13.1583 6.66175 13.5 7.5C12.8333 7.5 12.5 7.83333 12.5 8.5C11.8333 8.5 11.5 8.16667 11.5 7.5C11.5 7.16667 11.5 6.83333 11.5 6.5Z" fill="#A0B8D3"></path><path fill-rule="evenodd" clip-rule="evenodd" d="M17.5 5.5C18.1667 5.5 18.8333 5.5 19.5 5.5C19.1667 6.16667 18.8333 6.83333 18.5 7.5C18.1667 7.5 17.8333 7.5 17.5 7.5C17.5 6.83333 17.5 6.16667 17.5 5.5Z" fill="#A3B1D0"></path><path opacity="0.659" fill-rule="evenodd" clip-rule="evenodd" d="M2.5 6.5C2.5 7.16667 2.83333 7.5 3.5 7.5C3.5 8.16667 3.16667 8.5 2.5 8.5C2.16667 8.5 1.83333 8.5 1.5 8.5C1.32842 7.50838 1.66175 6.84171 2.5 6.5Z" fill="#A7CDDF"></path><path fill-rule="evenodd" clip-rule="evenodd" d="M9.5 6.5C10.1667 6.5 10.8333 6.5 11.5 6.5C11.5 6.83333 11.5 7.16667 11.5 7.5C10.8333 7.83333 10.1667 8.16667 9.5 8.5C8.83333 8.5 8.16667 8.5 7.5 8.5C8.16667 7.83333 8.83333 7.16667 9.5 6.5Z" fill="#C4C5D7"></path><path fill-rule="evenodd" clip-rule="evenodd" d="M12.5 8.5C12.5 7.83333 12.8333 7.5 13.5 7.5C13.8333 7.5 14.1667 7.5 14.5 7.5C14.5 8.16667 14.5 8.83333 14.5 9.5C14.1667 9.5 13.8333 9.5 13.5 9.5C13.5 8.83333 13.1667 8.5 12.5 8.5Z" fill="#BDC0D9"></path><path fill-rule="evenodd" clip-rule="evenodd" d="M19.5 5.5C19.8333 5.5 20.1667 5.5 20.5 5.5C20.5 6.16667 20.5 6.83333 20.5 7.5C19.8333 7.83333 19.1667 8.16667 18.5 8.5C18.5 8.16667 18.5 7.83333 18.5 7.5C18.8333 6.83333 19.1667 6.16667 19.5 5.5Z" fill="#A3C7DD"></path><path fill-rule="evenodd" clip-rule="evenodd" d="M3.5 7.5C3.83333 7.5 4.16667 7.5 4.5 7.5C4.5 7.83333 4.5 8.16667 4.5 8.5C4.5 8.83333 4.5 9.16667 4.5 9.5C4.5 10.1667 4.16667 10.5 3.5 10.5C3.16667 10.5 2.83333 10.5 2.5 10.5C2.5 9.83333 2.5 9.16667 2.5 8.5C3.16667 8.5 3.5 8.16667 3.5 7.5Z" fill="#A5D6E7"></path><path opacity="0.82" fill-rule="evenodd" clip-rule="evenodd" d="M6.5 7.5C6.5 7.83333 6.5 8.16667 6.5 8.5C6.5 8.83333 6.5 9.16667 6.5 9.5C5.83333 9.5 5.16667 9.5 4.5 9.5C4.5 9.16667 4.5 8.83333 4.5 8.5C5.16667 8.16667 5.83333 7.83333 6.5 7.5Z" fill="#9A9DC0"></path><path fill-rule="evenodd" clip-rule="evenodd" d="M6.5 8.5C6.83333 8.5 7.16667 8.5 7.5 8.5C8.16667 8.5 8.83333 8.5 9.5 8.5C9.5 9.16667 9.5 9.83333 9.5 10.5C8.50838 10.3284 7.84171 10.6618 7.5 11.5C7.16667 11.5 6.83333 11.5 6.5 11.5C6.5 10.8333 6.5 10.1667 6.5 9.5C6.5 9.16667 6.5 8.83333 6.5 8.5Z" fill="#BDB1C3"></path><path fill-rule="evenodd" clip-rule="evenodd" d="M11.5 7.5C11.5 8.16667 11.8333 8.5 12.5 8.5C13.1667 8.5 13.5 8.83333 13.5 9.5C13.1667 9.5 12.8333 9.5 12.5 9.5C11.5084 9.32842 10.8417 9.66175 10.5 10.5C10.1667 10.5 9.83333 10.5 9.5 10.5C9.5 9.83333 9.5 9.16667 9.5 8.5C10.1667 8.16667 10.8333 7.83333 11.5 7.5Z" fill="#D8D1E4"></path><path fill-rule="evenodd" clip-rule="evenodd" d="M14.5 7.5C15.1667 7.5 15.8333 7.5 16.5 7.5C16.8333 7.5 17.1667 7.5 17.5 7.5C17.5 8.16667 17.5 8.83333 17.5 9.5C17.1667 9.5 16.8333 9.5 16.5 9.5C15.8333 9.5 15.1667 9.5 14.5 9.5C14.5 8.83333 14.5 8.16667 14.5 7.5Z" fill="#B4C0DB"></path><path fill-rule="evenodd" clip-rule="evenodd" d="M20.5 7.5C20.8333 8.16667 21.1667 8.83333 21.5 9.5C21.1667 9.5 20.8333 9.5 20.5 9.5C19.5084 9.67158 18.8417 9.33825 18.5 8.5C19.1667 8.16667 19.8333 7.83333 20.5 7.5Z" fill="#ADABCC"></path><path fill-rule="evenodd" clip-rule="evenodd" d="M1.5 8.5C1.83333 8.5 2.16667 8.5 2.5 8.5C2.5 9.16667 2.5 9.83333 2.5 10.5C2.5 11.1667 2.16667 11.5 1.5 11.5C0.166667 10.5 0.166667 9.5 1.5 8.5Z" fill="#93A4C3"></path><path fill-rule="evenodd" clip-rule="evenodd" d="M12.5 9.5C12.5 10.1667 12.5 10.8333 12.5 11.5C11.8333 11.5 11.1667 11.5 10.5 11.5C10.5 11.1667 10.5 10.8333 10.5 10.5C10.8417 9.66175 11.5084 9.32842 12.5 9.5Z" fill="#9BABC9"></path><path fill-rule="evenodd" clip-rule="evenodd" d="M12.5 9.5C12.8333 9.5 13.1667 9.5 13.5 9.5C13.3284 10.4916 13.6618 11.1583 14.5 11.5C14.5 11.8333 14.5 12.1667 14.5 12.5C13.8333 12.5 13.5 12.8333 13.5 13.5C12.8333 13.5 12.1667 13.5 11.5 13.5C11.8333 12.8333 12.1667 12.1667 12.5 11.5C12.5 10.8333 12.5 10.1667 12.5 9.5Z" fill="#C8C8DE"></path><path fill-rule="evenodd" clip-rule="evenodd" d="M13.5 9.5C13.8333 9.5 14.1667 9.5 14.5 9.5C15.1667 9.5 15.8333 9.5 16.5 9.5C15.8333 10.1667 15.1667 10.8333 14.5 11.5C13.6618 11.1583 13.3284 10.4916 13.5 9.5Z" fill="#D3CCE2"></path><path opacity="0.878" fill-rule="evenodd" clip-rule="evenodd" d="M4.5 9.5C5.16667 9.5 5.83333 9.5 6.5 9.5C6.5 10.1667 6.5 10.8333 6.5 11.5C5.39105 11.5569 4.39105 11.8902 3.5 12.5C3.5 11.8333 3.5 11.1667 3.5 10.5C4.16667 10.5 4.5 10.1667 4.5 9.5Z" fill="#98B5CE"></path><path fill-rule="evenodd" clip-rule="evenodd" d="M7.5 11.5C7.84171 10.6617 8.50838 10.3284 9.5 10.5C9.83333 10.5 10.1667 10.5 10.5 10.5C10.5 10.8333 10.5 11.1667 10.5 11.5C10.5 12.1667 10.5 12.8333 10.5 13.5C9.83333 13.1667 9.16667 12.8333 8.5 12.5C8.5 11.8333 8.16667 11.5 7.5 11.5Z" fill="#C57EA3"></path><path opacity="0.996" fill-rule="evenodd" clip-rule="evenodd" d="M16.5 9.5C16.8333 9.5 17.1667 9.5 17.5 9.5C17.5 10.1667 17.5 10.8333 17.5 11.5C16.8485 12.0906 16.1818 12.7573 15.5 13.5C14.8933 13.3764 14.56 13.0431 14.5 12.5C14.5 12.1667 14.5 11.8333 14.5 11.5C15.1667 10.8333 15.8333 10.1667 16.5 9.5Z" fill="#AEBBD5"></path><path fill-rule="evenodd" clip-rule="evenodd" d="M17.5 7.5C17.8333 7.5 18.1667 7.5 18.5 7.5C18.5 7.83333 18.5 8.16667 18.5 8.5C18.8417 9.33825 19.5084 9.67158 20.5 9.5C20.1667 10.1667 19.8333 10.8333 19.5 11.5C18.8333 11.5 18.1667 11.5 17.5 11.5C17.5 10.8333 17.5 10.1667 17.5 9.5C17.5 8.83333 17.5 8.16667 17.5 7.5Z" fill="#9ECADF"></path><path opacity="0.592" fill-rule="evenodd" clip-rule="evenodd" d="M20.5 9.5C20.8333 9.5 21.1667 9.5 21.5 9.5C21.5 10.1667 21.5 10.8333 21.5 11.5C20.8333 11.5 20.1667 11.5 19.5 11.5C19.8333 10.8333 20.1667 10.1667 20.5 9.5Z" fill="#A6CFE2"></path><path opacity="0.992" fill-rule="evenodd" clip-rule="evenodd" d="M2.5 10.5C2.83333 10.5 3.16667 10.5 3.5 10.5C3.5 11.1667 3.5 11.8333 3.5 12.5C3.5 12.8333 3.5 13.1667 3.5 13.5C2.5 13.1667 1.83333 12.5 1.5 11.5C2.16667 11.5 2.5 11.1667 2.5 10.5Z" fill="#8F8FAF"></path><path fill-rule="evenodd" clip-rule="evenodd" d="M6.5 11.5C6.5 12.1667 6.5 12.8333 6.5 13.5C6.5 14.1667 6.16667 14.5 5.5 14.5C5.15829 13.6618 4.49162 13.3284 3.5 13.5C3.5 13.1667 3.5 12.8333 3.5 12.5C4.39105 11.8902 5.39105 11.5569 6.5 11.5Z" fill="#98C8DB"></path><path fill-rule="evenodd" clip-rule="evenodd" d="M17.5 12.5C17.5 12.1667 17.5 11.8333 17.5 11.5C18.1667 11.5 18.8333 11.5 19.5 11.5C19.5 12.1667 19.5 12.8333 19.5 13.5C18.8333 13.1667 18.1667 12.8333 17.5 12.5Z" fill="#96B6D1"></path><path fill-rule="evenodd" clip-rule="evenodd" d="M6.5 11.5C6.83333 11.5 7.16667 11.5 7.5 11.5C8.16667 11.5 8.5 11.8333 8.5 12.5C8.5 13.1667 8.16667 13.5 7.5 13.5C7.16667 13.5 6.83333 13.5 6.5 13.5C6.5 12.8333 6.5 12.1667 6.5 11.5Z" fill="#AD8FAC"></path><path fill-rule="evenodd" clip-rule="evenodd" d="M10.5 11.5C11.1667 11.5 11.8333 11.5 12.5 11.5C12.1667 12.1667 11.8333 12.8333 11.5 13.5C11.1667 13.5 10.8333 13.5 10.5 13.5C10.5 12.8333 10.5 12.1667 10.5 11.5Z" fill="#CBA6C5"></path><path opacity="0.976" fill-rule="evenodd" clip-rule="evenodd" d="M19.5 11.5C20.1667 11.5 20.8333 11.5 21.5 11.5C22.3007 13.0418 22.634 14.7085 22.5 16.5C21.5084 16.6716 20.8417 16.3382 20.5 15.5C20.6716 14.5084 20.3382 13.8417 19.5 13.5C19.5 12.8333 19.5 12.1667 19.5 11.5Z" fill="#9EABC7"></path><path fill-rule="evenodd" clip-rule="evenodd" d="M3.5 13.5C4.49162 13.3284 5.15829 13.6618 5.5 14.5C4.83333 14.5 4.5 14.8333 4.5 15.5C3.66175 15.1583 3.32842 14.4916 3.5 13.5Z" fill="#9198BA"></path><path fill-rule="evenodd" clip-rule="evenodd" d="M8.5 12.5C9.16667 12.8333 9.83333 13.1667 10.5 13.5C10.6716 14.4916 10.3382 15.1583 9.5 15.5C9.15829 14.6618 8.49162 14.3284 7.5 14.5C7.5 14.1667 7.5 13.8333 7.5 13.5C8.16667 13.5 8.5 13.1667 8.5 12.5Z" fill="#C2B5CA"></path><path fill-rule="evenodd" clip-rule="evenodd" d="M11.5 13.5C12.1667 13.5 12.8333 13.5 13.5 13.5C13.1667 14.1667 12.8333 14.8333 12.5 15.5C12.1667 15.5 11.8333 15.5 11.5 15.5C11.5 14.8333 11.5 14.1667 11.5 13.5Z" fill="#92ADC9"></path><path fill-rule="evenodd" clip-rule="evenodd" d="M6.5 13.5C6.83333 13.5 7.16667 13.5 7.5 13.5C7.5 13.8333 7.5 14.1667 7.5 14.5C7.5 14.8333 7.5 15.1667 7.5 15.5C6.83333 15.5 6.16667 15.5 5.5 15.5C5.16667 15.5 4.83333 15.5 4.5 15.5C4.5 14.8333 4.83333 14.5 5.5 14.5C6.16667 14.5 6.5 14.1667 6.5 13.5Z" fill="#C0B8D2"></path><path fill-rule="evenodd" clip-rule="evenodd" d="M10.5 13.5C10.8333 13.5 11.1667 13.5 11.5 13.5C11.5 14.1667 11.5 14.8333 11.5 15.5C11.5 15.8333 11.5 16.1667 11.5 16.5C10.8333 16.5 10.5 16.8333 10.5 17.5C10.1667 17.5 9.83333 17.5 9.5 17.5C9.5 17.1667 9.5 16.8333 9.5 16.5C9.5 16.1667 9.5 15.8333 9.5 15.5C10.3382 15.1583 10.6716 14.4916 10.5 13.5Z" fill="#D5CCE1"></path><path fill-rule="evenodd" clip-rule="evenodd" d="M17.5 11.5C17.5 11.8333 17.5 12.1667 17.5 12.5C17.5 13.1667 17.5 13.8333 17.5 14.5C17.1667 14.5 16.8333 14.5 16.5 14.5C15.5084 14.3284 14.8417 14.6618 14.5 15.5C13.8333 15.5 13.1667 15.5 12.5 15.5C12.8333 14.8333 13.1667 14.1667 13.5 13.5C13.5 12.8333 13.8333 12.5 14.5 12.5C14.56 13.0431 14.8933 13.3764 15.5 13.5C16.1818 12.7573 16.8485 12.0906 17.5 11.5Z" fill="#CEC7DE"></path><path fill-rule="evenodd" clip-rule="evenodd" d="M16.5 14.5C16.5 15.1667 16.5 15.8333 16.5 16.5C15.5084 16.6716 14.8417 16.3382 14.5 15.5C14.8417 14.6618 15.5084 14.3284 16.5 14.5Z" fill="#98B1CD"></path><path opacity="0.7" fill-rule="evenodd" clip-rule="evenodd" d="M17.5 12.5C18.1667 12.8333 18.8333 13.1667 19.5 13.5C20.3382 13.8417 20.6716 14.5084 20.5 15.5C19.8333 15.8333 19.1667 16.1667 18.5 16.5C18.6716 15.5084 18.3382 14.8417 17.5 14.5C17.5 13.8333 17.5 13.1667 17.5 12.5Z" fill="#9FCBDE"></path><path fill-rule="evenodd" clip-rule="evenodd" d="M5.5 16.5C5.5 16.1667 5.5 15.8333 5.5 15.5C6.16667 15.5 6.83333 15.5 7.5 15.5C7.84171 16.3382 8.50838 16.6716 9.5 16.5C9.5 16.8333 9.5 17.1667 9.5 17.5C9.16667 17.5 8.83333 17.5 8.5 17.5C8.16667 17.5 7.83333 17.5 7.5 17.5C6.83333 17.1667 6.16667 16.8333 5.5 16.5Z" fill="#CCC5DB"></path><path fill-rule="evenodd" clip-rule="evenodd" d="M7.5 14.5C8.49162 14.3284 9.15829 14.6618 9.5 15.5C9.5 15.8333 9.5 16.1667 9.5 16.5C8.50838 16.6716 7.84171 16.3382 7.5 15.5C7.5 15.1667 7.5 14.8333 7.5 14.5Z" fill="#94AAC7"></path><path fill-rule="evenodd" clip-rule="evenodd" d="M11.5 16.5C11.5 16.1667 11.5 15.8333 11.5 15.5C11.8333 15.5 12.1667 15.5 12.5 15.5C13.1667 15.5 13.8333 15.5 14.5 15.5C14.8417 16.3382 15.5084 16.6716 16.5 16.5C16.5 16.8333 16.5 17.1667 16.5 17.5C15.8333 17.5 15.1667 17.5 14.5 17.5C13.8333 17.1667 13.1667 16.8333 12.5 16.5C12.1667 16.5 11.8333 16.5 11.5 16.5Z" fill="#D5CBE0"></path><path fill-rule="evenodd" clip-rule="evenodd" d="M16.5 14.5C16.8333 14.5 17.1667 14.5 17.5 14.5C18.3382 14.8417 18.6716 15.5084 18.5 16.5C17.6618 16.8417 17.3284 17.5084 17.5 18.5C17.5 19.1667 17.1667 19.5 16.5 19.5C16.5 18.8333 16.5 18.1667 16.5 17.5C16.5 17.1667 16.5 16.8333 16.5 16.5C16.5 15.8333 16.5 15.1667 16.5 14.5Z" fill="#C8BFD4"></path><path fill-rule="evenodd" clip-rule="evenodd" d="M10.5 17.5C10.5 16.8333 10.8333 16.5 11.5 16.5C11.8333 16.5 12.1667 16.5 12.5 16.5C12.5 17.1667 12.5 17.8333 12.5 18.5C11.8333 18.1667 11.1667 17.8333 10.5 17.5Z" fill="#869DBB"></path><path fill-rule="evenodd" clip-rule="evenodd" d="M20.5 15.5C20.8417 16.3382 21.5084 16.6716 22.5 16.5C23.7514 17.472 23.418 18.1386 21.5 18.5C20.0202 17.5676 18.6869 17.5676 17.5 18.5C17.3284 17.5084 17.6618 16.8417 18.5 16.5C19.1667 16.1667 19.8333 15.8333 20.5 15.5Z" fill="#89B7C9"></path><path fill-rule="evenodd" clip-rule="evenodd" d="M12.5 16.5C13.1667 16.8333 13.8333 17.1667 14.5 17.5C14.5 17.8333 14.5 18.1667 14.5 18.5C13.8333 18.5 13.1667 18.5 12.5 18.5C12.5 17.8333 12.5 17.1667 12.5 16.5Z" fill="#BEC0D8"></path><path opacity="0.678" fill-rule="evenodd" clip-rule="evenodd" d="M5.50001 16.5C6.16668 16.8333 6.83334 17.1667 7.50001 17.5C7.55689 18.609 7.89023 19.609 8.50001 20.5C6.08825 20.3059 5.08825 18.9726 5.50001 16.5Z" fill="#A0A1B4"></path><path fill-rule="evenodd" clip-rule="evenodd" d="M8.5 17.5C8.83333 17.5 9.16667 17.5 9.5 17.5C9.83333 17.5 10.1667 17.5 10.5 17.5C11.1667 17.8333 11.8333 18.1667 12.5 18.5C13.1667 18.5 13.8333 18.5 14.5 18.5C14.5 19.1667 14.1667 19.5 13.5 19.5C12.5084 19.3284 11.8417 19.6618 11.5 20.5C11.1667 20.5 10.8333 20.5 10.5 20.5C9.83333 19.5 9.16667 18.5 8.5 17.5Z" fill="#C0BED3"></path><path fill-rule="evenodd" clip-rule="evenodd" d="M7.5 17.5C7.83333 17.5 8.16667 17.5 8.5 17.5C9.16667 18.5 9.83333 19.5 10.5 20.5C9.83333 20.5 9.16667 20.5 8.5 20.5C7.89022 19.609 7.55688 18.609 7.5 17.5Z" fill="#CAD1DD"></path><path fill-rule="evenodd" clip-rule="evenodd" d="M13.5 19.5C13.5 20.1667 13.5 20.8333 13.5 21.5C12.8333 21.5 12.1667 21.5 11.5 21.5C11.5 21.1667 11.5 20.8333 11.5 20.5C11.8417 19.6618 12.5084 19.3284 13.5 19.5Z" fill="#96ADCA"></path><path opacity="0.953" fill-rule="evenodd" clip-rule="evenodd" d="M14.5 17.5C15.1667 17.5 15.8333 17.5 16.5 17.5C16.5 18.1667 16.5 18.8333 16.5 19.5C16.1667 20.5 15.5 21.1667 14.5 21.5C14.1667 21.5 13.8333 21.5 13.5 21.5C13.5 20.8333 13.5 20.1667 13.5 19.5C14.1667 19.5 14.5 19.1667 14.5 18.5C14.5 18.1667 14.5 17.8333 14.5 17.5Z" fill="#BFC5D4"></path><path fill-rule="evenodd" clip-rule="evenodd" d="M8.5 20.5C9.16667 20.5 9.83333 20.5 10.5 20.5C10.8333 20.5 11.1667 20.5 11.5 20.5C11.5 20.8333 11.5 21.1667 11.5 21.5C11.1583 22.3382 10.4916 22.6716 9.5 22.5C9.16667 21.8333 8.83333 21.1667 8.5 20.5Z" fill="#BDB7CC"></path><path fill-rule="evenodd" clip-rule="evenodd" d="M11.5 21.5C12.1667 21.5 12.8333 21.5 13.5 21.5C13.8333 21.5 14.1667 21.5 14.5 21.5C13.1214 23.5969 11.4547 23.9302 9.5 22.5C10.4916 22.6716 11.1583 22.3382 11.5 21.5Z" fill="#B6AFC1"></path></g></g><defs><clipPath id="clip0_10_1842"><rect width="24" height="24" fill="white"></rect></clipPath><clipPath id="clip1_10_1842"><rect width="25" height="24" fill="white" transform="translate(0 1)"></rect></clipPath></defs></svg>