<svg xmlns="http://www.w3.org/2000/svg" xmlns:xlink="http://www.w3.org/1999/xlink" width="25px" height="24px" style="shape-rendering:geometricPrecision; text-rendering:geometricPrecision; image-rendering:optimizeQuality; fill-rule:evenodd; clip-rule:evenodd"><g><path style="opacity:0.973" fill="#e2807f" d="M 18.5,2.5 C 18.8294,5.22817 18.1628,7.5615 16.5,9.5C 17.7848,4.80886 17.1182,4.47553 14.5,8.5C 13.9648,5.76152 14.9648,3.92818 17.5,3C 13.6425,2.19007 9.97579,2.35673 6.5,3.5C 5.5,3.83333 4.83333,4.5 4.5,5.5C 3.83333,5.5 3.5,5.16667 3.5,4.5C 4.11637,2.58286 5.44971,1.4162 7.5,1C 11.4773,0.120551 15.1439,0.620551 18.5,2.5 Z"></path></g><g><path style="opacity:0.263" fill="#f17977" d="M 18.5,2.5 C 20.8333,4.16667 22.8333,6.16667 24.5,8.5C 24.5,8.83333 24.5,9.16667 24.5,9.5C 21.2114,7.81087 19.2114,8.81087 18.5,12.5C 17.8902,13.391 17.5569,14.391 17.5,15.5C 17.1667,15.5 16.8333,15.5 16.5,15.5C 16.5,15.1667 16.5,14.8333 16.5,14.5C 15.9035,12.602 15.9035,10.9354 16.5,9.5C 18.1628,7.5615 18.8294,5.22817 18.5,2.5 Z"></path></g><g><path style="opacity:1" fill="#b89191" d="M 6.5,3.5 C 8.44563,4.03472 9.44563,5.36805 9.5,7.5C 8.39105,7.55688 7.39105,7.89022 6.5,8.5C 5.59872,7.70951 4.93205,6.70951 4.5,5.5C 4.83333,4.5 5.5,3.83333 6.5,3.5 Z"></path></g><g><path style="opacity:1" fill="#eab4b6" d="M 6.5,3.5 C 9.97579,2.35673 13.6425,2.19007 17.5,3C 14.9648,3.92818 13.9648,5.76152 14.5,8.5C 12.7085,8.63404 11.0418,8.30071 9.5,7.5C 9.44563,5.36805 8.44563,4.03472 6.5,3.5 Z"></path></g><g><path style="opacity:1" fill="#f27477" d="M 3.5,4.5 C 3.5,5.16667 3.83333,5.5 4.5,5.5C 4.93205,6.70951 5.59872,7.70951 6.5,8.5C 6.5,9.83333 6.5,11.1667 6.5,12.5C 6.5,13.1667 6.5,13.8333 6.5,14.5C 6.5,14.8333 6.5,15.1667 6.5,15.5C 6.16667,15.5 5.83333,15.5 5.5,15.5C 5.5,14.8333 5.16667,14.5 4.5,14.5C 5.33852,8.9636 3.67185,7.63027 -0.5,10.5C -0.5,9.16667 -0.5,7.83333 -0.5,6.5C 0.60486,5.39952 1.93819,4.73286 3.5,4.5 Z"></path></g><g><path style="opacity:1" fill="#98a1ac" d="M 9.5,7.5 C 11.0418,8.30071 12.7085,8.63404 14.5,8.5C 13.7659,9.70792 13.4326,11.0413 13.5,12.5C 11.002,11.9182 8.66867,11.9182 6.5,12.5C 6.5,11.1667 6.5,9.83333 6.5,8.5C 7.39105,7.89022 8.39105,7.55688 9.5,7.5 Z"></path></g><g><path style="opacity:1" fill="#b69ebf" d="M 4.5,14.5 C 3.83333,14.5 3.16667,14.5 2.5,14.5C 2.5,13.1667 1.83333,12.5 0.5,12.5C 0.5,11.8333 0.166667,11.5 -0.5,11.5C -0.5,11.1667 -0.5,10.8333 -0.5,10.5C 3.67185,7.63027 5.33852,8.9636 4.5,14.5 Z"></path></g><g><path style="opacity:1" fill="#bd90a8" d="M 24.5,9.5 C 24.5,9.83333 24.5,10.1667 24.5,10.5C 22.0237,13.2882 21.0237,16.6215 21.5,20.5C 20.6862,18.369 20.1862,16.0356 20,13.5C 19.6174,12.944 19.1174,12.6107 18.5,12.5C 19.2114,8.81087 21.2114,7.81087 24.5,9.5 Z"></path></g><g><path style="opacity:1" fill="#eebcc1" d="M 16.5,9.5 C 15.9035,10.9354 15.9035,12.602 16.5,14.5C 13.1475,13.2926 9.81421,13.2926 6.5,14.5C 6.5,13.8333 6.5,13.1667 6.5,12.5C 8.66867,11.9182 11.002,11.9182 13.5,12.5C 13.4326,11.0413 13.7659,9.70792 14.5,8.5C 17.1182,4.47553 17.7848,4.80886 16.5,9.5 Z"></path></g><g><path style="opacity:1" fill="#a18cac" d="M 2.5,14.5 C 3.16667,14.5 3.83333,14.5 4.5,14.5C 5.16667,14.5 5.5,14.8333 5.5,15.5C 5.5,17.5 5.5,19.5 5.5,21.5C 3.73668,22.9538 2.40335,22.6204 1.5,20.5C 3.72883,18.9007 4.06216,16.9007 2.5,14.5 Z"></path></g><g><path style="opacity:1" fill="#fcd0d9" d="M 16.5,14.5 C 16.5,14.8333 16.5,15.1667 16.5,15.5C 16.5,15.8333 16.5,16.1667 16.5,16.5C 13.1667,16.5 9.83333,16.5 6.5,16.5C 6.5,16.1667 6.5,15.8333 6.5,15.5C 6.5,15.1667 6.5,14.8333 6.5,14.5C 9.81421,13.2926 13.1475,13.2926 16.5,14.5 Z"></path></g><g><path style="opacity:0.98" fill="#cb94ab" d="M 0.5,12.5 C 1.83333,12.5 2.5,13.1667 2.5,14.5C 4.06216,16.9007 3.72883,18.9007 1.5,20.5C 1.59868,17.7628 1.26535,15.0961 0.5,12.5 Z"></path></g><g><path style="opacity:1" fill="#f4bcca" d="M 6.5,16.5 C 9.83333,16.5 13.1667,16.5 16.5,16.5C 13.6627,18.4023 10.3293,19.069 6.5,18.5C 6.5,17.8333 6.5,17.1667 6.5,16.5 Z"></path></g><g><path style="opacity:1" fill="#f0b5c4" d="M 16.5,15.5 C 16.8333,15.5 17.1667,15.5 17.5,15.5C 17.5,17.1667 17.5,18.8333 17.5,20.5C 13.351,21.0803 9.68431,20.4136 6.5,18.5C 10.3293,19.069 13.6627,18.4023 16.5,16.5C 16.5,16.1667 16.5,15.8333 16.5,15.5 Z"></path></g><g><path style="opacity:1" fill="#af94b4" d="M 18.5,12.5 C 19.1174,12.6107 19.6174,12.944 20,13.5C 20.1862,16.0356 20.6862,18.369 21.5,20.5C 20.5967,22.6204 19.2633,22.9538 17.5,21.5C 17.5,21.1667 17.5,20.8333 17.5,20.5C 17.5,18.8333 17.5,17.1667 17.5,15.5C 17.5569,14.391 17.8902,13.391 18.5,12.5 Z"></path></g><g><path style="opacity:0.667" fill="#eaaebd" d="M 5.5,15.5 C 5.83333,15.5 6.16667,15.5 6.5,15.5C 6.5,15.8333 6.5,16.1667 6.5,16.5C 6.5,17.1667 6.5,17.8333 6.5,18.5C 9.68431,20.4136 13.351,21.0803 17.5,20.5C 17.5,20.8333 17.5,21.1667 17.5,21.5C 13.5,21.5 9.5,21.5 5.5,21.5C 5.5,19.5 5.5,17.5 5.5,15.5 Z"></path></g></svg>