<svg xmlns="http://www.w3.org/2000/svg" width="26" height="26" viewBox="0 0 26 26" fill="none"><rect width="26" height="26" fill="white"></rect><path d="M24.4405 7.98989C24.4405 6.88882 23.5518 6 22.4506 6H9.80377L9.08515 7.31735L8.47718 6H3.78989C2.68877 6 1.8 6.88882 1.8 7.98989V11.3064L3.30949 12.1961L1.8 12.633V18.6026C1.8 19.7036 2.68877 20.5925 3.78989 20.5925H8.47718L8.91256 18.769L9.80377 20.5925H22.4506C23.5518 20.5925 24.4405 19.7036 24.4405 18.6026V12.633L21.1622 12.1932L24.4405 11.3064V7.98989Z" fill="url(#paint0_linear_10_1842)"></path><path d="M13.6641 11.3064C13.7437 11.0941 13.7835 10.8819 13.7835 10.6431C13.7835 9.542 12.8948 8.65318 11.7937 8.65318C11.0508 8.65318 10.3476 8.90523 9.80377 9.31648V6H8.47718V9.31648C7.93332 8.90523 7.23018 8.65318 6.48729 8.65318C5.38618 8.65318 4.4974 9.542 4.4974 10.6431C4.4974 10.8819 4.53725 11.0941 4.61684 11.3064H1.8V12.633H8.35774C8.09247 13.4023 7.34962 13.9595 6.48729 13.9595C6.1158 13.9595 5.824 14.2514 5.824 14.6228C5.824 14.9942 6.1158 15.2861 6.48729 15.2861C7.23018 15.2861 7.93332 15.0341 8.47718 14.6228V20.5925H9.80377V14.6228C10.3476 15.0341 11.0508 15.2861 11.7937 15.2861C12.1651 15.2861 12.457 14.9942 12.457 14.6228C12.457 14.2514 12.1651 13.9595 11.7937 13.9595C10.9313 13.9595 10.1884 13.4023 9.92321 12.633H24.4405V11.3064H13.6641ZM6.48729 11.3064C6.1158 11.3064 5.824 11.0145 5.824 10.6431C5.824 10.2716 6.1158 9.97977 6.48729 9.97977C7.34962 9.97977 8.09251 10.5369 8.35774 11.3064H6.48729ZM11.7937 11.3064H9.92321C10.1885 10.5369 10.9313 9.97977 11.7937 9.97977C12.1651 9.97977 12.457 10.2716 12.457 10.6431C12.457 11.0145 12.1651 11.3064 11.7937 11.3064ZM21.124 16.6127H17.1442C16.7776 16.6127 16.4809 16.9094 16.4809 17.276C16.4809 17.6426 16.7776 17.9393 17.1442 17.9393H21.124C21.4906 17.9393 21.7873 17.6426 21.7873 17.276C21.7873 16.9094 21.4906 16.6127 21.124 16.6127ZM21.124 13.9595H19.7974C19.4308 13.9595 19.1341 14.2562 19.1341 14.6228C19.1341 14.9895 19.4308 15.2861 19.7974 15.2861H21.124C21.4906 15.2861 21.7873 14.9895 21.7873 14.6228C21.7873 14.2562 21.4906 13.9595 21.124 13.9595Z" fill="url(#paint1_linear_10_1842)"></path><defs><linearGradient id="paint0_linear_10_1842" x1="13.1202" y1="20.5925" x2="13.1202" y2="6" gradientUnits="userSpaceOnUse"><stop stop-color="#A93AFF"></stop><stop offset="1" stop-color="#FF81FF"></stop></linearGradient><linearGradient id="paint1_linear_10_1842" x1="13.1202" y1="20.5925" x2="13.1202" y2="6" gradientUnits="userSpaceOnUse"><stop stop-color="#FFBEF9"></stop><stop offset="1" stop-color="#FFF1FF"></stop></linearGradient></defs></svg>